G70*
%FSLAX55Y55*%
%ADD11R,0.05906X0.05906*%
%ADD12C,0.05906*%
%ADD13R,0.09843X0.09843*%
%ADD14C,0.09843*%
%ADD15R,0.03583X0.03583*%
%ADD16R,0.05315X0.06102*%
%ADD17R,0.06102X0.05315*%
%ADD18R,0.03346X0.09252*%
%ADD19R,0.09000X0.09000*%
D11*
X63295Y227250D03*
D12*
X63295Y217250D03*
X63295Y207250D03*
X63295Y197250D03*
X63295Y187250D03*
X63276Y177250D03*
X63276Y167250D03*
X63276Y157250D03*
D13*
X41642Y155321D03*
D14*
X41642Y169101D03*
X41642Y182880D03*
X41642Y196660D03*
D15*
X62264Y75991D03*
X68264Y75991D03*
D16*
X86091Y88668D03*
X79004Y88668D03*
D11*
X161524Y366030D03*
D12*
X161524Y356030D03*
X161524Y346030D03*
X161524Y336030D03*
X161524Y326030D03*
X161504Y316030D03*
D11*
X109102Y197093D03*
D12*
X109102Y187093D03*
X109102Y177093D03*
X109102Y167093D03*
X109102Y157093D03*
X109083Y147093D03*
X109083Y137093D03*
X109083Y127093D03*
X109083Y117093D03*
X109083Y107093D03*
X109083Y97093D03*
X109083Y87093D03*
X109083Y77093D03*
X109083Y67093D03*
X109083Y57093D03*
X219319Y57093D03*
X219319Y67093D03*
X219319Y77093D03*
X219319Y87093D03*
X219319Y97093D03*
X219319Y107093D03*
X219319Y117093D03*
X219319Y127093D03*
X219319Y137093D03*
X219319Y147093D03*
X219319Y157093D03*
X219319Y167093D03*
X219319Y177093D03*
X219319Y187093D03*
X219319Y197093D03*
D11*
X86839Y262605D03*
D12*
X96839Y262605D03*
X106839Y262605D03*
X116839Y262605D03*
X126839Y262605D03*
X136839Y262585D03*
X146839Y262585D03*
X156839Y262585D03*
D16*
X36878Y138668D03*
X29791Y138668D03*
X10854Y41227D03*
X17941Y41227D03*
X10854Y116817D03*
X17941Y116817D03*
D17*
X234634Y187841D03*
X234634Y194928D03*
D11*
X189063Y363943D03*
D12*
X189063Y353943D03*
X189063Y343943D03*
X189063Y333943D03*
X189063Y323943D03*
X189043Y313943D03*
D17*
X78965Y77920D03*
X78965Y70833D03*
D11*
X316406Y59317D03*
D12*
X306406Y59317D03*
X296406Y59317D03*
X286406Y59317D03*
X276406Y59317D03*
X266406Y59337D03*
X256406Y59337D03*
X246406Y59337D03*
D15*
X269201Y186376D03*
X269201Y192376D03*
X282587Y256550D03*
X282587Y250550D03*
D13*
X41642Y221857D03*
D14*
X41642Y235636D03*
X41642Y249416D03*
X41642Y263195D03*
D16*
X79083Y98353D03*
X86169Y98353D03*
X11642Y138865D03*
X18728Y138865D03*
D11*
X257114Y82231D03*
D12*
X267114Y82231D03*
X277114Y82231D03*
X287114Y82231D03*
X297114Y82231D03*
X307114Y82211D03*
D18*
X88827Y58471D03*
X78827Y58471D03*
X68827Y58471D03*
X58827Y58471D03*
X58827Y21857D03*
X68827Y21857D03*
X78827Y21857D03*
X88827Y21857D03*
D15*
X282587Y207337D03*
X282587Y201337D03*
D11*
X251091Y262841D03*
D12*
X251091Y252841D03*
X251091Y242841D03*
X251091Y232841D03*
X251091Y222841D03*
X251091Y212841D03*
X251091Y202841D03*
X251091Y192841D03*
X251091Y182841D03*
X251091Y172841D03*
D15*
X269201Y153306D03*
X269201Y159306D03*
D13*
X40854Y58471D03*
D14*
X40854Y72250D03*
X40854Y86030D03*
X40854Y99809D03*
D15*
X275894Y250550D03*
X275894Y256550D03*
X275894Y153306D03*
X275894Y159306D03*
X269201Y250550D03*
X269201Y256550D03*
D13*
X309358Y265557D03*
D14*
X309358Y251778D03*
X309358Y237998D03*
X309358Y224219D03*
D15*
X239130Y213392D03*
X233130Y213392D03*
X62264Y68904D03*
X68264Y68904D03*
D16*
X36091Y116620D03*
X29004Y116620D03*
D13*
X309358Y200203D03*
D14*
X309358Y186424D03*
X309358Y172644D03*
X309358Y158865D03*
D15*
X275894Y169054D03*
X275894Y175054D03*
D16*
X36091Y41424D03*
X29004Y41424D03*
D19*
X295185Y253943D03*
X295185Y269691D03*
D15*
X282587Y159306D03*
X282587Y153306D03*
X282587Y192770D03*
X282587Y186770D03*
X275894Y233227D03*
X275894Y239227D03*
D17*
X234083Y175557D03*
X234083Y168471D03*
D15*
X275894Y201337D03*
X275894Y207337D03*
X282587Y239227D03*
X282587Y233227D03*
X282587Y175298D03*
X282587Y169298D03*
X275894Y218660D03*
X275894Y224660D03*
X275894Y265117D03*
X275894Y271117D03*
X239130Y220085D03*
X233130Y220085D03*
D19*
X295185Y188195D03*
X295185Y203943D03*
D15*
X282587Y271117D03*
X282587Y265117D03*
X275894Y186376D03*
X275894Y192376D03*
X282587Y224660D03*
X282587Y218660D03*
D19*
X295185Y155124D03*
X295185Y170872D03*
X295185Y221266D03*
X295185Y237014D03*
D15*
X239130Y226778D03*
X233130Y226778D03*
X269201Y218660D03*
X269201Y224660D03*
M02*
