G70*
%FSLAX55Y55*%
%ADD11R,0.03000X0.03000*%
%ADD12R,0.04724X0.05512*%
%ADD13R,0.05512X0.04724*%
%ADD14R,0.02756X0.08661*%
%ADD15R,0.07500X0.07500*%
D11*
X62264Y75991D03*
X68264Y75991D03*
D12*
X86091Y88668D03*
X79004Y88668D03*
X36878Y138668D03*
X29791Y138668D03*
X10854Y41227D03*
X17941Y41227D03*
X10854Y116817D03*
X17941Y116817D03*
D13*
X234634Y187841D03*
X234634Y194928D03*
X78965Y77920D03*
X78965Y70833D03*
D11*
X269201Y186376D03*
X269201Y192376D03*
X282587Y256550D03*
X282587Y250550D03*
D12*
X79083Y98353D03*
X86169Y98353D03*
X11642Y138865D03*
X18728Y138865D03*
D14*
X88827Y58471D03*
X78827Y58471D03*
X68827Y58471D03*
X58827Y58471D03*
X58827Y21857D03*
X68827Y21857D03*
X78827Y21857D03*
X88827Y21857D03*
D11*
X282587Y207337D03*
X282587Y201337D03*
X269201Y153306D03*
X269201Y159306D03*
X275894Y250550D03*
X275894Y256550D03*
X275894Y153306D03*
X275894Y159306D03*
X269201Y250550D03*
X269201Y256550D03*
X239130Y213392D03*
X233130Y213392D03*
X62264Y68904D03*
X68264Y68904D03*
D12*
X36091Y116620D03*
X29004Y116620D03*
D11*
X275894Y169054D03*
X275894Y175054D03*
D12*
X36091Y41424D03*
X29004Y41424D03*
D15*
X295185Y253943D03*
X295185Y269691D03*
D11*
X282587Y159306D03*
X282587Y153306D03*
X282587Y192770D03*
X282587Y186770D03*
X275894Y233227D03*
X275894Y239227D03*
D13*
X234083Y175557D03*
X234083Y168471D03*
D11*
X275894Y201337D03*
X275894Y207337D03*
X282587Y239227D03*
X282587Y233227D03*
X282587Y175298D03*
X282587Y169298D03*
X275894Y218660D03*
X275894Y224660D03*
X275894Y265117D03*
X275894Y271117D03*
X239130Y220085D03*
X233130Y220085D03*
D15*
X295185Y188195D03*
X295185Y203943D03*
D11*
X282587Y271117D03*
X282587Y265117D03*
X275894Y186376D03*
X275894Y192376D03*
X282587Y224660D03*
X282587Y218660D03*
D15*
X295185Y155124D03*
X295185Y170872D03*
X295185Y221266D03*
X295185Y237014D03*
D11*
X239130Y226778D03*
X233130Y226778D03*
X269201Y218660D03*
X269201Y224660D03*
M02*
