M48
FMAT,2
T1C0.016
T2C0.035
T3C0.051
%
T1
X00462Y00414
X00791Y01051
X00861Y00813
X00888Y00308
X00446Y01387
X00803Y01409
X02341Y01611
X02346Y02014
X0239Y01803
X02433Y02002
X02692Y02033
Y01729
X0142Y0231
X02278Y02134
X02331Y02337
X02692Y0236
Y0269
T2
X01091Y00671
Y00571
X02193
Y00671
X02464Y00593
X02564
X02664
X02764Y00593
X02864
X02964
X03064
X03164
X01091Y01171
Y01271
Y00971
Y00871
Y01071
Y00771
X02193Y01271
Y00771
Y00871
Y01171
Y01071
Y00971
X02571Y00822
X02671
X02771
X02871
X02971
X03071Y00822
X00633Y01673
Y01573
Y01773
X01091Y01371
Y01471
X01091Y01771
Y01571
Y01671
X02193Y01471
Y01771
Y01671
Y01571
Y01371
X02511Y01728
X00633Y01973
Y01873
Y02073
Y02173
Y02273
X01091Y01971
Y01871
X02193
Y01971
X02511Y01828
Y02228
Y02028
Y02128
Y01928
X00868Y02626
X00968
X01068
X01168
X01268
X01368Y02626
X01468
X01568
X02511Y02528
Y02428
Y02328
Y02628
X01615Y0316
X01615Y0336
Y0326
Y0346
Y0356
X0189Y03139
X01891Y03239
Y03439
Y03339
Y03539
Y03639
X01615Y0366
T3
X00409Y00723
Y00585
Y00998
Y0086
X00416Y01829
Y01967
Y01553
Y01691
X03094Y01864
Y02002
Y01589
Y01726
X00416Y02219
Y02356
Y02494
Y02632
X03094Y0238
Y02518
Y02242
Y02656
M30
