G70*
%FSLAX55Y55*%
%AMUSER11*
1, 1, 0.01000, 0.0, 0.0*
1, 0, 0.00500, 0.0, 0.0*%
%ADD11USER11*%
%ADD12C,0.00800*%
D11*
X63295Y227250D03*
D12*
X64331Y228286D02*
X64331Y229328*
X65997Y233286D01*
X67664Y229328*
X64956Y230786D02*
X67039Y230786D01*
D11*
X63295Y217250D03*
D12*
X64331Y218286D02*
X64331Y219328*
X65997Y223286D01*
X67664Y219328*
X64956Y220786D02*
X67039Y220786D01*
D11*
X63295Y207250D03*
D12*
X64331Y208286D02*
X64331Y209328*
X65997Y213286D01*
X67664Y209328*
X64956Y210786D02*
X67039Y210786D01*
D11*
X63295Y197250D03*
D12*
X64331Y198286D02*
X64331Y199328*
X65997Y203286D01*
X67664Y199328*
X64956Y200786D02*
X67039Y200786D01*
D11*
X63295Y187250D03*
D12*
X64331Y188286D02*
X64331Y189328*
X65997Y193286D01*
X67664Y189328*
X64956Y190786D02*
X67039Y190786D01*
D11*
X63276Y177250D03*
D12*
X64311Y178286D02*
X64311Y179328*
X65978Y183286D01*
X67644Y179328*
X64936Y180786D02*
X67019Y180786D01*
D11*
X63276Y167250D03*
D12*
X64311Y168286D02*
X64311Y169328*
X65978Y173286D01*
X67644Y169328*
X64936Y170786D02*
X67019Y170786D01*
D11*
X63276Y157250D03*
D12*
X64311Y158286D02*
X64311Y159328*
X65978Y163286D01*
X67644Y159328*
X64936Y160786D02*
X67019Y160786D01*
D11*
X41642Y155321D03*
D12*
X42677Y156357D02*
X42677Y157398*
X42677Y161357D01*
X45594Y161357*
X46011Y160940*
X46011Y159898*
X45594Y159482*
X42677Y159482D02*
X45594Y159482D01*
X46011Y159065*
X46011Y157815*
X45594Y157398*
X42677Y157398*
D11*
X41642Y169101D03*
D12*
X42677Y170136D02*
X42677Y171178*
X42677Y175136D01*
X45594Y175136*
X46011Y174720*
X46011Y173678*
X45594Y173261*
X42677Y173261D02*
X45594Y173261D01*
X46011Y172845*
X46011Y171595*
X45594Y171178*
X42677Y171178*
D11*
X41642Y182880D03*
D12*
X42677Y183916D02*
X42677Y184957*
X42677Y188916D01*
X45594Y188916*
X46011Y188499*
X46011Y187457*
X45594Y187041*
X42677Y187041D02*
X45594Y187041D01*
X46011Y186624*
X46011Y185374*
X45594Y184957*
X42677Y184957*
D11*
X41642Y196660D03*
D12*
X42677Y197695D02*
X42677Y198737*
X42677Y202695D01*
X45594Y202695*
X46011Y202279*
X46011Y201237*
X45594Y200820*
X42677Y200820D02*
X45594Y200820D01*
X46011Y200404*
X46011Y199154*
X45594Y198737*
X42677Y198737*
D11*
X161524Y366030D03*
D12*
X162559Y367065D02*
X162559Y368107*
X164226Y372065D01*
X165892Y368107*
X163184Y369565D02*
X165267Y369565D01*
D11*
X161524Y356030D03*
D12*
X162559Y357065D02*
X162559Y358107*
X164226Y362065D01*
X165892Y358107*
X163184Y359565D02*
X165267Y359565D01*
D11*
X161524Y346030D03*
D12*
X162559Y347065D02*
X162559Y348107*
X164226Y352065D01*
X165892Y348107*
X163184Y349565D02*
X165267Y349565D01*
D11*
X161524Y336030D03*
D12*
X162559Y337065D02*
X162559Y338107*
X164226Y342065D01*
X165892Y338107*
X163184Y339565D02*
X165267Y339565D01*
D11*
X161524Y326030D03*
D12*
X162559Y327065D02*
X162559Y328107*
X164226Y332065D01*
X165892Y328107*
X163184Y329565D02*
X165267Y329565D01*
D11*
X161504Y316030D03*
D12*
X162539Y317065D02*
X162539Y318107*
X164206Y322065D01*
X165873Y318107*
X163164Y319565D02*
X165248Y319565D01*
D11*
X109102Y197093D03*
D12*
X110138Y198128D02*
X110138Y199170*
X111805Y203128D01*
X113471Y199170*
X110763Y200628D02*
X112846Y200628D01*
D11*
X109102Y187093D03*
D12*
X110138Y188128D02*
X110138Y189170*
X111805Y193128D01*
X113471Y189170*
X110763Y190628D02*
X112846Y190628D01*
D11*
X109102Y177093D03*
D12*
X110138Y178128D02*
X110138Y179170*
X111805Y183128D01*
X113471Y179170*
X110763Y180628D02*
X112846Y180628D01*
D11*
X109102Y167093D03*
D12*
X110138Y168128D02*
X110138Y169170*
X111805Y173128D01*
X113471Y169170*
X110763Y170628D02*
X112846Y170628D01*
D11*
X109102Y157093D03*
D12*
X110138Y158128D02*
X110138Y159170*
X111805Y163128D01*
X113471Y159170*
X110763Y160628D02*
X112846Y160628D01*
D11*
X109083Y147093D03*
D12*
X110118Y148128D02*
X110118Y149170*
X111785Y153128D01*
X113451Y149170*
X110743Y150628D02*
X112826Y150628D01*
D11*
X109083Y137093D03*
D12*
X110118Y138128D02*
X110118Y139170*
X111785Y143128D01*
X113451Y139170*
X110743Y140628D02*
X112826Y140628D01*
D11*
X109083Y127093D03*
D12*
X110118Y128128D02*
X110118Y129170*
X111785Y133128D01*
X113451Y129170*
X110743Y130628D02*
X112826Y130628D01*
D11*
X109083Y117093D03*
D12*
X110118Y118128D02*
X110118Y119170*
X111785Y123128D01*
X113451Y119170*
X110743Y120628D02*
X112826Y120628D01*
D11*
X109083Y107093D03*
D12*
X110118Y108128D02*
X110118Y109170*
X111785Y113128D01*
X113451Y109170*
X110743Y110628D02*
X112826Y110628D01*
D11*
X109083Y97093D03*
D12*
X110118Y98128D02*
X110118Y99170*
X111785Y103128D01*
X113451Y99170*
X110743Y100628D02*
X112826Y100628D01*
D11*
X109083Y87093D03*
D12*
X110118Y88128D02*
X110118Y89170*
X111785Y93128D01*
X113451Y89170*
X110743Y90628D02*
X112826Y90628D01*
D11*
X109083Y77093D03*
D12*
X110118Y78128D02*
X110118Y79170*
X111785Y83128D01*
X113451Y79170*
X110743Y80628D02*
X112826Y80628D01*
D11*
X109083Y67093D03*
D12*
X110118Y68128D02*
X110118Y69170*
X111785Y73128D01*
X113451Y69170*
X110743Y70628D02*
X112826Y70628D01*
D11*
X109083Y57093D03*
D12*
X110118Y58128D02*
X110118Y59170*
X111785Y63128D01*
X113451Y59170*
X110743Y60628D02*
X112826Y60628D01*
D11*
X219319Y57093D03*
D12*
X220354Y58128D02*
X220354Y59170*
X222021Y63128D01*
X223688Y59170*
X220979Y60628D02*
X223063Y60628D01*
D11*
X219319Y67093D03*
D12*
X220354Y68128D02*
X220354Y69170*
X222021Y73128D01*
X223688Y69170*
X220979Y70628D02*
X223063Y70628D01*
D11*
X219319Y77093D03*
D12*
X220354Y78128D02*
X220354Y79170*
X222021Y83128D01*
X223688Y79170*
X220979Y80628D02*
X223063Y80628D01*
D11*
X219319Y87093D03*
D12*
X220354Y88128D02*
X220354Y89170*
X222021Y93128D01*
X223688Y89170*
X220979Y90628D02*
X223063Y90628D01*
D11*
X219319Y97093D03*
D12*
X220354Y98128D02*
X220354Y99170*
X222021Y103128D01*
X223688Y99170*
X220979Y100628D02*
X223063Y100628D01*
D11*
X219319Y107093D03*
D12*
X220354Y108128D02*
X220354Y109170*
X222021Y113128D01*
X223688Y109170*
X220979Y110628D02*
X223063Y110628D01*
D11*
X219319Y117093D03*
D12*
X220354Y118128D02*
X220354Y119170*
X222021Y123128D01*
X223688Y119170*
X220979Y120628D02*
X223063Y120628D01*
D11*
X219319Y127093D03*
D12*
X220354Y128128D02*
X220354Y129170*
X222021Y133128D01*
X223688Y129170*
X220979Y130628D02*
X223063Y130628D01*
D11*
X219319Y137093D03*
D12*
X220354Y138128D02*
X220354Y139170*
X222021Y143128D01*
X223688Y139170*
X220979Y140628D02*
X223063Y140628D01*
D11*
X219319Y147093D03*
D12*
X220354Y148128D02*
X220354Y149170*
X222021Y153128D01*
X223688Y149170*
X220979Y150628D02*
X223063Y150628D01*
D11*
X219319Y157093D03*
D12*
X220354Y158128D02*
X220354Y159170*
X222021Y163128D01*
X223688Y159170*
X220979Y160628D02*
X223063Y160628D01*
D11*
X219319Y167093D03*
D12*
X220354Y168128D02*
X220354Y169170*
X222021Y173128D01*
X223688Y169170*
X220979Y170628D02*
X223063Y170628D01*
D11*
X219319Y177093D03*
D12*
X220354Y178128D02*
X220354Y179170*
X222021Y183128D01*
X223688Y179170*
X220979Y180628D02*
X223063Y180628D01*
D11*
X219319Y187093D03*
D12*
X220354Y188128D02*
X220354Y189170*
X222021Y193128D01*
X223688Y189170*
X220979Y190628D02*
X223063Y190628D01*
D11*
X219319Y197093D03*
D12*
X220354Y198128D02*
X220354Y199170*
X222021Y203128D01*
X223688Y199170*
X220979Y200628D02*
X223063Y200628D01*
D11*
X86839Y262605D03*
D12*
X87874Y263640D02*
X87874Y264682*
X89541Y268640D01*
X91207Y264682*
X88499Y266140D02*
X90582Y266140D01*
D11*
X96839Y262605D03*
D12*
X97874Y263640D02*
X97874Y264682*
X99541Y268640D01*
X101207Y264682*
X98499Y266140D02*
X100582Y266140D01*
D11*
X106839Y262605D03*
D12*
X107874Y263640D02*
X107874Y264682*
X109541Y268640D01*
X111207Y264682*
X108499Y266140D02*
X110582Y266140D01*
D11*
X116839Y262605D03*
D12*
X117874Y263640D02*
X117874Y264682*
X119541Y268640D01*
X121207Y264682*
X118499Y266140D02*
X120582Y266140D01*
D11*
X126839Y262605D03*
D12*
X127874Y263640D02*
X127874Y264682*
X129541Y268640D01*
X131207Y264682*
X128499Y266140D02*
X130582Y266140D01*
D11*
X136839Y262585D03*
D12*
X137874Y263621D02*
X137874Y264662*
X139541Y268621D01*
X141207Y264662*
X138499Y266121D02*
X140582Y266121D01*
D11*
X146839Y262585D03*
D12*
X147874Y263621D02*
X147874Y264662*
X149541Y268621D01*
X151207Y264662*
X148499Y266121D02*
X150582Y266121D01*
D11*
X156839Y262585D03*
D12*
X157874Y263621D02*
X157874Y264662*
X159541Y268621D01*
X161207Y264662*
X158499Y266121D02*
X160582Y266121D01*
D11*
X189063Y363943D03*
D12*
X190099Y364979D02*
X190099Y366020*
X191765Y369979D01*
X193432Y366020*
X190724Y367479D02*
X192807Y367479D01*
D11*
X189063Y353943D03*
D12*
X190099Y354979D02*
X190099Y356020*
X191765Y359979D01*
X193432Y356020*
X190724Y357479D02*
X192807Y357479D01*
D11*
X189063Y343943D03*
D12*
X190099Y344979D02*
X190099Y346020*
X191765Y349979D01*
X193432Y346020*
X190724Y347479D02*
X192807Y347479D01*
D11*
X189063Y333943D03*
D12*
X190099Y334979D02*
X190099Y336020*
X191765Y339979D01*
X193432Y336020*
X190724Y337479D02*
X192807Y337479D01*
D11*
X189063Y323943D03*
D12*
X190099Y324979D02*
X190099Y326020*
X191765Y329979D01*
X193432Y326020*
X190724Y327479D02*
X192807Y327479D01*
D11*
X189043Y313943D03*
D12*
X190079Y314979D02*
X190079Y316020*
X191745Y319979D01*
X193412Y316020*
X190704Y317479D02*
X192787Y317479D01*
D11*
X316406Y59317D03*
D12*
X317441Y60353D02*
X317441Y61394*
X319108Y65353D01*
X320774Y61394*
X318066Y62853D02*
X320149Y62853D01*
D11*
X306406Y59317D03*
D12*
X307441Y60353D02*
X307441Y61394*
X309108Y65353D01*
X310774Y61394*
X308066Y62853D02*
X310149Y62853D01*
D11*
X296406Y59317D03*
D12*
X297441Y60353D02*
X297441Y61394*
X299108Y65353D01*
X300774Y61394*
X298066Y62853D02*
X300149Y62853D01*
D11*
X286406Y59317D03*
D12*
X287441Y60353D02*
X287441Y61394*
X289108Y65353D01*
X290774Y61394*
X288066Y62853D02*
X290149Y62853D01*
D11*
X276406Y59317D03*
D12*
X277441Y60353D02*
X277441Y61394*
X279108Y65353D01*
X280774Y61394*
X278066Y62853D02*
X280149Y62853D01*
D11*
X266406Y59337D03*
D12*
X267441Y60373D02*
X267441Y61414*
X269108Y65373D01*
X270774Y61414*
X268066Y62873D02*
X270149Y62873D01*
D11*
X256406Y59337D03*
D12*
X257441Y60373D02*
X257441Y61414*
X259108Y65373D01*
X260774Y61414*
X258066Y62873D02*
X260149Y62873D01*
D11*
X246406Y59337D03*
D12*
X247441Y60373D02*
X247441Y61414*
X249108Y65373D01*
X250774Y61414*
X248066Y62873D02*
X250149Y62873D01*
D11*
X41642Y221857D03*
D12*
X42677Y222892D02*
X42677Y223934*
X42677Y227892D01*
X45594Y227892*
X46011Y227476*
X46011Y226434*
X45594Y226017*
X42677Y226017D02*
X45594Y226017D01*
X46011Y225601*
X46011Y224351*
X45594Y223934*
X42677Y223934*
D11*
X41642Y235636D03*
D12*
X42677Y236672D02*
X42677Y237713*
X42677Y241672D01*
X45594Y241672*
X46011Y241255*
X46011Y240213*
X45594Y239797*
X42677Y239797D02*
X45594Y239797D01*
X46011Y239380*
X46011Y238130*
X45594Y237713*
X42677Y237713*
D11*
X41642Y249416D03*
D12*
X42677Y250451D02*
X42677Y251493*
X42677Y255451D01*
X45594Y255451*
X46011Y255035*
X46011Y253993*
X45594Y253576*
X42677Y253576D02*
X45594Y253576D01*
X46011Y253160*
X46011Y251910*
X45594Y251493*
X42677Y251493*
D11*
X41642Y263195D03*
D12*
X42677Y264231D02*
X42677Y265272*
X42677Y269231D01*
X45594Y269231*
X46011Y268814*
X46011Y267772*
X45594Y267356*
X42677Y267356D02*
X45594Y267356D01*
X46011Y266939*
X46011Y265689*
X45594Y265272*
X42677Y265272*
D11*
X257114Y82231D03*
D12*
X258150Y83266D02*
X258150Y84308*
X259816Y88266D01*
X261483Y84308*
X258775Y85766D02*
X260858Y85766D01*
D11*
X267114Y82231D03*
D12*
X268150Y83266D02*
X268150Y84308*
X269816Y88266D01*
X271483Y84308*
X268775Y85766D02*
X270858Y85766D01*
D11*
X277114Y82231D03*
D12*
X278150Y83266D02*
X278150Y84308*
X279816Y88266D01*
X281483Y84308*
X278775Y85766D02*
X280858Y85766D01*
D11*
X287114Y82231D03*
D12*
X288150Y83266D02*
X288150Y84308*
X289816Y88266D01*
X291483Y84308*
X288775Y85766D02*
X290858Y85766D01*
D11*
X297114Y82231D03*
D12*
X298150Y83266D02*
X298150Y84308*
X299816Y88266D01*
X301483Y84308*
X298775Y85766D02*
X300858Y85766D01*
D11*
X307114Y82211D03*
D12*
X308150Y83247D02*
X308150Y84288*
X309816Y88247D01*
X311483Y84288*
X308775Y85747D02*
X310858Y85747D01*
D11*
X251091Y262841D03*
D12*
X252126Y263876D02*
X252126Y264918*
X253793Y268876D01*
X255459Y264918*
X252751Y266376D02*
X254834Y266376D01*
D11*
X251091Y252841D03*
D12*
X252126Y253876D02*
X252126Y254918*
X253793Y258876D01*
X255459Y254918*
X252751Y256376D02*
X254834Y256376D01*
D11*
X251091Y242841D03*
D12*
X252126Y243876D02*
X252126Y244918*
X253793Y248876D01*
X255459Y244918*
X252751Y246376D02*
X254834Y246376D01*
D11*
X251091Y232841D03*
D12*
X252126Y233876D02*
X252126Y234918*
X253793Y238876D01*
X255459Y234918*
X252751Y236376D02*
X254834Y236376D01*
D11*
X251091Y222841D03*
D12*
X252126Y223876D02*
X252126Y224918*
X253793Y228876D01*
X255459Y224918*
X252751Y226376D02*
X254834Y226376D01*
D11*
X251091Y212841D03*
D12*
X252126Y213876D02*
X252126Y214918*
X253793Y218876D01*
X255459Y214918*
X252751Y216376D02*
X254834Y216376D01*
D11*
X251091Y202841D03*
D12*
X252126Y203876D02*
X252126Y204918*
X253793Y208876D01*
X255459Y204918*
X252751Y206376D02*
X254834Y206376D01*
D11*
X251091Y192841D03*
D12*
X252126Y193876D02*
X252126Y194918*
X253793Y198876D01*
X255459Y194918*
X252751Y196376D02*
X254834Y196376D01*
D11*
X251091Y182841D03*
D12*
X252126Y183876D02*
X252126Y184918*
X253793Y188876D01*
X255459Y184918*
X252751Y186376D02*
X254834Y186376D01*
D11*
X251091Y172841D03*
D12*
X252126Y173876D02*
X252126Y174918*
X253793Y178876D01*
X255459Y174918*
X252751Y176376D02*
X254834Y176376D01*
D11*
X40854Y58471D03*
D12*
X41890Y59506D02*
X41890Y60548*
X41890Y64506D01*
X44806Y64506*
X45223Y64090*
X45223Y63048*
X44806Y62631*
X41890Y62631D02*
X44806Y62631D01*
X45223Y62215*
X45223Y60965*
X44806Y60548*
X41890Y60548*
D11*
X40854Y72250D03*
D12*
X41890Y73286D02*
X41890Y74328*
X41890Y78286D01*
X44806Y78286*
X45223Y77869*
X45223Y76828*
X44806Y76411*
X41890Y76411D02*
X44806Y76411D01*
X45223Y75994*
X45223Y74744*
X44806Y74328*
X41890Y74328*
D11*
X40854Y86030D03*
D12*
X41890Y87065D02*
X41890Y88107*
X41890Y92065D01*
X44806Y92065*
X45223Y91649*
X45223Y90607*
X44806Y90190*
X41890Y90190D02*
X44806Y90190D01*
X45223Y89774*
X45223Y88524*
X44806Y88107*
X41890Y88107*
D11*
X40854Y99809D03*
D12*
X41890Y100845D02*
X41890Y101887*
X41890Y105845D01*
X44806Y105845*
X45223Y105428*
X45223Y104387*
X44806Y103970*
X41890Y103970D02*
X44806Y103970D01*
X45223Y103553*
X45223Y102303*
X44806Y101887*
X41890Y101887*
D11*
X309358Y265557D03*
D12*
X310394Y266593D02*
X310394Y267635*
X310394Y271593D01*
X313310Y271593*
X313727Y271176*
X313727Y270135*
X313310Y269718*
X310394Y269718D02*
X313310Y269718D01*
X313727Y269301*
X313727Y268051*
X313310Y267635*
X310394Y267635*
D11*
X309358Y251778D03*
D12*
X310394Y252813D02*
X310394Y253855*
X310394Y257813D01*
X313310Y257813*
X313727Y257397*
X313727Y256355*
X313310Y255938*
X310394Y255938D02*
X313310Y255938D01*
X313727Y255522*
X313727Y254272*
X313310Y253855*
X310394Y253855*
D11*
X309358Y237998D03*
D12*
X310394Y239034D02*
X310394Y240076*
X310394Y244034D01*
X313310Y244034*
X313727Y243617*
X313727Y242576*
X313310Y242159*
X310394Y242159D02*
X313310Y242159D01*
X313727Y241742*
X313727Y240492*
X313310Y240076*
X310394Y240076*
D11*
X309358Y224219D03*
D12*
X310394Y225254D02*
X310394Y226296*
X310394Y230254D01*
X313310Y230254*
X313727Y229838*
X313727Y228796*
X313310Y228379*
X310394Y228379D02*
X313310Y228379D01*
X313727Y227963*
X313727Y226713*
X313310Y226296*
X310394Y226296*
D11*
X309358Y200203D03*
D12*
X310394Y201239D02*
X310394Y202280*
X310394Y206239D01*
X313310Y206239*
X313727Y205822*
X313727Y204780*
X313310Y204364*
X310394Y204364D02*
X313310Y204364D01*
X313727Y203947*
X313727Y202697*
X313310Y202280*
X310394Y202280*
D11*
X309358Y186424D03*
D12*
X310394Y187459D02*
X310394Y188501*
X310394Y192459D01*
X313310Y192459*
X313727Y192042*
X313727Y191001*
X313310Y190584*
X310394Y190584D02*
X313310Y190584D01*
X313727Y190167*
X313727Y188917*
X313310Y188501*
X310394Y188501*
D11*
X309358Y172644D03*
D12*
X310394Y173680D02*
X310394Y174721*
X310394Y178680D01*
X313310Y178680*
X313727Y178263*
X313727Y177221*
X313310Y176805*
X310394Y176805D02*
X313310Y176805D01*
X313727Y176388*
X313727Y175138*
X313310Y174721*
X310394Y174721*
D11*
X309358Y158865D03*
D12*
X310394Y159900D02*
X310394Y160942*
X310394Y164900D01*
X313310Y164900*
X313727Y164483*
X313727Y163442*
X313310Y163025*
X310394Y163025D02*
X313310Y163025D01*
X313727Y162608*
X313727Y161358*
X313310Y160942*
X310394Y160942*
D11*
X233084Y233700D03*
D12*
X234120Y234736D02*
X237453Y236194*
X237036Y235777D01*
X234536Y235777*
X234120Y236194*
X234120Y239319*
X234536Y239736*
X237036Y239736*
X237453Y239319*
D11*
X269184Y269000D03*
D12*
X270220Y270036D02*
X273553Y271494*
X273136Y271077D01*
X270636Y271077*
X270220Y271494*
X270220Y274619*
X270636Y275036*
X273136Y275036*
X273553Y274619*
D11*
X46184Y41400D03*
D12*
X47220Y42436D02*
X50553Y43894*
X50136Y43477D01*
X47636Y43477*
X47220Y43894*
X47220Y47019*
X47636Y47436*
X50136Y47436*
X50553Y47019*
D11*
X86084Y81300D03*
D12*
X87120Y82336D02*
X90453Y83794*
X90036Y83377D01*
X87536Y83377*
X87120Y83794*
X87120Y86919*
X87536Y87336*
X90036Y87336*
X90453Y86919*
D11*
X269184Y236000D03*
D12*
X270220Y237036D02*
X273553Y238494*
X273136Y238077D01*
X270636Y238077*
X270220Y238494*
X270220Y241619*
X270636Y242036*
X273136Y242036*
X273553Y241619*
D11*
X44584Y138700D03*
D12*
X45620Y139736D02*
X48953Y141194*
X48536Y140777D01*
X46036Y140777*
X45620Y141194*
X45620Y144319*
X46036Y144736*
X48536Y144736*
X48953Y144319*
D11*
X88784Y30800D03*
D12*
X89820Y31836D02*
X93153Y33294*
X92736Y32877D01*
X90236Y32877*
X89820Y33294*
X89820Y36419*
X90236Y36836*
X92736Y36836*
X93153Y36419*
D11*
X269184Y172900D03*
D12*
X270220Y173936D02*
X273553Y175394*
X273136Y174977D01*
X270636Y174977*
X270220Y175394*
X270220Y178519*
X270636Y178936*
X273136Y178936*
X273553Y178519*
D11*
X269184Y203300D03*
D12*
X270220Y204336D02*
X273553Y205794*
X273136Y205377D01*
X270636Y205377*
X270220Y205794*
X270220Y208919*
X270636Y209336*
X273136Y209336*
X273553Y208919*
D11*
X79084Y105100D03*
D12*
X80120Y106136D02*
X83453Y107594*
X83036Y107177D01*
X80536Y107177*
X80120Y107594*
X80120Y110719*
X80536Y111136*
X83036Y111136*
X83453Y110719*
D11*
X238984Y180300D03*
D12*
X240020Y181336D02*
X243353Y182794*
X242936Y182377D01*
X240436Y182377*
X240020Y182794*
X240020Y185919*
X240436Y186336*
X242936Y186336*
X243353Y185919*
D11*
X243284Y200200D03*
D12*
X244320Y201236D02*
X247653Y202694*
X247236Y202277D01*
X244736Y202277*
X244320Y202694*
X244320Y205819*
X244736Y206236*
X247236Y206236*
X247653Y205819*
D11*
X234084Y161100D03*
D12*
X235120Y162136D02*
X238453Y163594*
X238036Y163177D01*
X235536Y163177*
X235120Y163594*
X235120Y166719*
X235536Y167136*
X238036Y167136*
X238453Y166719*
D11*
X234584Y201400D03*
D12*
X235620Y202436D02*
X238953Y203894*
X238536Y203477D01*
X236036Y203477*
X235620Y203894*
X235620Y207019*
X236036Y207436*
X238536Y207436*
X238953Y207019*
D11*
X227784Y213400D03*
D12*
X228820Y214436D02*
X232153Y215894*
X231736Y215477D01*
X229236Y215477*
X228820Y215894*
X228820Y219019*
X229236Y219436*
X231736Y219436*
X232153Y219019*
D11*
X80284Y140900D03*
D12*
X81320Y141936D02*
X84653Y143394*
X84236Y142977D01*
X81736Y142977*
X81320Y143394*
X81320Y146519*
X81736Y146936*
X84236Y146936*
X84653Y146519*
D11*
X141984Y231000D03*
D12*
X143020Y232036D02*
X146353Y233494*
X145936Y233077D01*
X143436Y233077*
X143020Y233494*
X143020Y236619*
X143436Y237036*
X145936Y237036*
X146353Y236619*
M02*
