G70*
%FSLAX55Y55*%
%ADD11C,0.02362*%
%ADD12C,0.01575*%
%ADD13C,0.03150*%
%ADD14R,0.05906X0.05906*%
%ADD15C,0.05906*%
%ADD16R,0.09843X0.09843*%
%ADD17C,0.09843*%
%ADD18R,0.03000X0.03000*%
%ADD19R,0.04724X0.05512*%
%ADD20R,0.05512X0.04724*%
%ADD21R,0.02756X0.08661*%
%ADD22R,0.08000X0.08000*%
%ADD23C,0.03150*%
D11*
X282587Y169298D02*
X282587Y159306D01*
X79004Y88668D02*
X79004Y97767D01*
D12*
X79004Y98161D02*
X78965Y98200D01*
X78965Y98235*
X79083Y98353*
D11*
X275894Y224660D02*
X275894Y233227D01*
D12*
X233130Y226778D02*
X233130Y220085D01*
X233130Y226778D02*
X233130Y233700D01*
X233084Y233700*
D11*
X269201Y269017D02*
X269201Y256550D01*
X275894Y271117D02*
X271301Y271117D01*
X269201Y269017*
X269184Y269017*
X269184Y269000*
X295185Y221266D02*
X306406Y221266D01*
X309358Y224219*
X295185Y155124D02*
X305618Y155124D01*
X309358Y158865*
D13*
X36091Y41424D02*
X46184Y41424D01*
X46184Y41400*
D11*
X86169Y98353D02*
X86169Y88668D01*
X86091Y88668*
X86091Y81300*
X86084Y81300*
X295185Y188195D02*
X307587Y188195D01*
X309358Y186424*
X269201Y236002D02*
X269201Y224660D01*
X275894Y239227D02*
X272425Y239227D01*
X269201Y236002*
X269184Y236002*
X269184Y236000*
X295185Y253943D02*
X307193Y253943D01*
X309358Y251778*
X36878Y138668D02*
X44617Y138668D01*
X44584Y138700*
D12*
X88784Y30800D02*
X88827Y30843D01*
D11*
X88827Y30449D02*
X88827Y21857D01*
X269201Y172867D02*
X269201Y159306D01*
X275894Y175054D02*
X271388Y175054D01*
X269201Y172867*
X269176Y172892*
X269184Y172892*
X269184Y172900*
D13*
X36091Y116620D02*
X40854Y111857D01*
X40854Y99809*
D11*
X269201Y203317D02*
X269201Y192376D01*
X275894Y207337D02*
X275894Y207350D01*
X273234Y207350*
X269201Y203317*
X269184Y203300D02*
X269201Y203317D01*
X309358Y200203D02*
X305618Y203943D01*
X295185Y203943*
D12*
X251091Y222841D02*
X247154Y226778D01*
X239130Y226778*
D11*
X275894Y169054D02*
X275894Y159306D01*
X282587Y175298D02*
X290760Y175298D01*
X295185Y170872*
X309358Y172644D02*
X295185Y172644D01*
X295185Y170872*
X275894Y192376D02*
X275894Y201337D01*
X282587Y192770D02*
X282587Y201337D01*
X78827Y58471D02*
X78827Y70695D01*
X78965Y70833*
D12*
X68264Y69000D02*
X68264Y68904D01*
D11*
X309358Y237998D02*
X295185Y237998D01*
X295185Y237014*
X282587Y239227D02*
X292972Y239227D01*
X295185Y237014*
D12*
X109102Y157093D02*
X94341Y157093D01*
X74184Y177250*
X62184Y177250*
X63276Y177250*
X62184Y177250D02*
X49791Y177250D01*
X41642Y169101*
X286406Y59317D02*
X286406Y65729D01*
X277114Y75020*
X277114Y82231*
X277114Y86870*
X239734Y124250*
X239734Y170550*
X234727Y175557*
X234083Y175557*
X161524Y336030D02*
X136864Y336030D01*
X96839Y296004*
X96839Y262605*
X219319Y177093D02*
X225741Y177093D01*
X227277Y175557*
X234083Y175557*
X68264Y69000D02*
X68827Y69000D01*
D11*
X68827Y68606D02*
X68827Y58471D01*
D12*
X234083Y175557D02*
X238984Y180459D01*
X238984Y180300*
X251091Y202841D02*
X245925Y202841D01*
X243284Y200200*
X251091Y212841D02*
X251091Y213392D01*
X239130Y213392*
X239130Y220085D02*
X239130Y213392D01*
D11*
X29791Y138668D02*
X18728Y138668D01*
X18728Y138865*
D12*
X251091Y252841D02*
X251693Y252841D01*
X264734Y239800*
X264734Y223126*
X269201Y218660*
D11*
X275894Y218660D02*
X269201Y218660D01*
X282587Y218660D02*
X275894Y218660D01*
D12*
X41642Y235636D02*
X48048Y235636D01*
X53234Y230450*
X53234Y217311*
X63295Y207250*
X81985Y207250*
X85134Y210400*
X119984Y210400*
X130234Y200150*
X130234Y138800*
X181941Y87093*
X219319Y87093*
D11*
X68264Y69000D02*
X68264Y75991D01*
X41642Y155321D02*
X41642Y157250D01*
X63276Y157250*
D13*
X10854Y116817D02*
X10854Y102680D01*
X27504Y86030*
X40854Y86030*
D11*
X62264Y75991D02*
X59584Y75991D01*
X49545Y86030*
X40854Y86030*
D13*
X29004Y41424D02*
X17941Y41424D01*
X17941Y41227*
X29004Y116620D02*
X17941Y116620D01*
X17941Y116817*
D11*
X234083Y168471D02*
X234083Y161102D01*
X234084Y161100*
X234634Y194928D02*
X234634Y201450D01*
X234584Y201400*
D12*
X233130Y213392D02*
X227792Y213392D01*
X227784Y213400*
X189063Y333943D02*
X183484Y328365D01*
X183484Y308750*
X146839Y272104*
X146839Y262585*
X146839Y256446*
X167134Y236150*
X167134Y147350*
X197391Y117093*
X219319Y117093*
X251091Y242841D02*
X252943Y242841D01*
X261834Y233950*
X261834Y193743*
X269201Y186376*
D11*
X275894Y186376D02*
X269201Y186376D01*
X275894Y186376D02*
X282587Y186376D01*
X282587Y186770*
X79084Y105100D02*
X79083Y105102D01*
X79083Y98353*
X275894Y250550D02*
X282587Y250550D01*
X269201Y250550D02*
X275894Y250550D01*
D12*
X269201Y250550D02*
X263382Y250550D01*
X251091Y262841*
X189063Y343943D02*
X177534Y332415D01*
X177534Y313950*
X137174Y273590*
X137174Y262384*
X137122Y262415*
X219319Y107093D02*
X193591Y107093D01*
X158334Y142350*
X158334Y235100*
X137122Y256312*
X137122Y262415*
X136839Y262585D02*
X137122Y262415D01*
X109102Y167093D02*
X96341Y167093D01*
X76184Y187250*
X63295Y187250*
X46304Y187250*
X41934Y182880*
X41642Y182880*
D11*
X282587Y271117D02*
X295185Y271117D01*
X295185Y269691*
X309358Y265557D02*
X306616Y268300D01*
X296576Y268300*
X295185Y269691*
D12*
X189063Y323943D02*
X196934Y316072D01*
X196934Y307150*
X156839Y267054*
X156839Y262585*
X157134Y262593*
X157134Y256550*
X175384Y238300*
X175384Y152900*
X201191Y127093*
X219319Y127093*
X126839Y262605D02*
X126839Y256196D01*
X151534Y231500*
X151534Y139250*
X193691Y97093*
X219319Y97093*
X11642Y138865D02*
X11642Y132143D01*
X12484Y131300*
X70684Y131300*
X80284Y140900*
D11*
X79004Y88668D02*
X79004Y87439D01*
X78965Y87400*
X78965Y77920*
X282587Y207337D02*
X286055Y207337D01*
X286251Y207533*
X289841Y203943*
X295185Y203943*
D12*
X41642Y221857D02*
X52146Y211353D01*
X52146Y208400*
X63295Y197250*
X80235Y197250*
X87734Y204750*
X116734Y204750*
X124834Y196650*
X124834Y135350*
X183091Y77093*
X219319Y77093*
X251091Y232841D02*
X258884Y225047D01*
X258884Y163622*
X269201Y153306*
D11*
X275894Y153306D02*
X269201Y153306D01*
X282587Y153306D02*
X275894Y153306D01*
D12*
X161524Y346030D02*
X168434Y339119D01*
X168434Y313150*
X161534Y306250*
X126284Y306250*
X106839Y286804*
X106839Y262605*
X251091Y192841D02*
X244225Y192841D01*
X239225Y187841*
X287114Y83850D02*
X287114Y82231D01*
X296406Y59317D02*
X296406Y66179D01*
X287114Y75470*
X287114Y83850*
X286484Y83850*
X245334Y125000*
X245334Y182250*
X239743Y187841*
X239225Y187841*
X234634Y187841D02*
X239225Y187841D01*
X234634Y187841D02*
X234634Y187093D01*
X219319Y187093*
D11*
X282587Y224660D02*
X282587Y233227D01*
X275894Y256550D02*
X275894Y265117D01*
D12*
X141984Y231000D02*
X107634Y231000D01*
X93934Y217300*
X63685Y217300*
X63295Y217250D02*
X63734Y217250D01*
X63685Y217300*
X41642Y249416D02*
X49219Y249416D01*
X56984Y241650*
X56984Y224000*
X63685Y217300*
D11*
X62264Y68904D02*
X51287Y68904D01*
X40854Y58471*
X109083Y57093D02*
X97940Y45950D01*
X53375Y45950*
X40854Y58471*
D13*
X20005Y58471D01*
X10854Y49320*
X10854Y41227*
D11*
X282587Y256550D02*
X282587Y265117D01*
D14*
X63295Y227250D03*
D15*
X63295Y217250D03*
X63295Y207250D03*
X63295Y197250D03*
X63295Y187250D03*
X63276Y177250D03*
X63276Y167250D03*
X63276Y157250D03*
D16*
X41642Y155321D03*
D17*
X41642Y169101D03*
X41642Y182880D03*
X41642Y196660D03*
D18*
X62264Y75991D03*
X68264Y75991D03*
D19*
X86091Y88668D03*
X79004Y88668D03*
D14*
X161524Y366030D03*
D15*
X161524Y356030D03*
X161524Y346030D03*
X161524Y336030D03*
X161524Y326030D03*
X161504Y316030D03*
D14*
X109102Y197093D03*
D15*
X109102Y187093D03*
X109102Y177093D03*
X109102Y167093D03*
X109102Y157093D03*
X109083Y147093D03*
X109083Y137093D03*
X109083Y127093D03*
X109083Y117093D03*
X109083Y107093D03*
X109083Y97093D03*
X109083Y87093D03*
X109083Y77093D03*
X109083Y67093D03*
X109083Y57093D03*
X219319Y57093D03*
X219319Y67093D03*
X219319Y77093D03*
X219319Y87093D03*
X219319Y97093D03*
X219319Y107093D03*
X219319Y117093D03*
X219319Y127093D03*
X219319Y137093D03*
X219319Y147093D03*
X219319Y157093D03*
X219319Y167093D03*
X219319Y177093D03*
X219319Y187093D03*
X219319Y197093D03*
D14*
X86839Y262605D03*
D15*
X96839Y262605D03*
X106839Y262605D03*
X116839Y262605D03*
X126839Y262605D03*
X136839Y262585D03*
X146839Y262585D03*
X156839Y262585D03*
D19*
X36878Y138668D03*
X29791Y138668D03*
X10854Y41227D03*
X17941Y41227D03*
X10854Y116817D03*
X17941Y116817D03*
D20*
X234634Y187841D03*
X234634Y194928D03*
D14*
X189063Y363943D03*
D15*
X189063Y353943D03*
X189063Y343943D03*
X189063Y333943D03*
X189063Y323943D03*
X189043Y313943D03*
D20*
X78965Y77920D03*
X78965Y70833D03*
D14*
X316406Y59317D03*
D15*
X306406Y59317D03*
X296406Y59317D03*
X286406Y59317D03*
X276406Y59317D03*
X266406Y59337D03*
X256406Y59337D03*
X246406Y59337D03*
D18*
X269201Y186376D03*
X269201Y192376D03*
X282587Y256550D03*
X282587Y250550D03*
D16*
X41642Y221857D03*
D17*
X41642Y235636D03*
X41642Y249416D03*
X41642Y263195D03*
D19*
X79083Y98353D03*
X86169Y98353D03*
X11642Y138865D03*
X18728Y138865D03*
D14*
X257114Y82231D03*
D15*
X267114Y82231D03*
X277114Y82231D03*
X287114Y82231D03*
X297114Y82231D03*
X307114Y82211D03*
D21*
X88827Y58471D03*
X78827Y58471D03*
X68827Y58471D03*
X58827Y58471D03*
X58827Y21857D03*
X68827Y21857D03*
X78827Y21857D03*
X88827Y21857D03*
D18*
X282587Y207337D03*
X282587Y201337D03*
D14*
X251091Y262841D03*
D15*
X251091Y252841D03*
X251091Y242841D03*
X251091Y232841D03*
X251091Y222841D03*
X251091Y212841D03*
X251091Y202841D03*
X251091Y192841D03*
X251091Y182841D03*
X251091Y172841D03*
D18*
X269201Y153306D03*
X269201Y159306D03*
D16*
X40854Y58471D03*
D17*
X40854Y72250D03*
X40854Y86030D03*
X40854Y99809D03*
D18*
X275894Y250550D03*
X275894Y256550D03*
X275894Y153306D03*
X275894Y159306D03*
X269201Y250550D03*
X269201Y256550D03*
D16*
X309358Y265557D03*
D17*
X309358Y251778D03*
X309358Y237998D03*
X309358Y224219D03*
D18*
X239130Y213392D03*
X233130Y213392D03*
X62264Y68904D03*
X68264Y68904D03*
D19*
X36091Y116620D03*
X29004Y116620D03*
D16*
X309358Y200203D03*
D17*
X309358Y186424D03*
X309358Y172644D03*
X309358Y158865D03*
D18*
X275894Y169054D03*
X275894Y175054D03*
D19*
X36091Y41424D03*
X29004Y41424D03*
D22*
X295185Y253943D03*
X295185Y269691D03*
D18*
X282587Y159306D03*
X282587Y153306D03*
X282587Y192770D03*
X282587Y186770D03*
X275894Y233227D03*
X275894Y239227D03*
D20*
X234083Y175557D03*
X234083Y168471D03*
D18*
X275894Y201337D03*
X275894Y207337D03*
X282587Y239227D03*
X282587Y233227D03*
X282587Y175298D03*
X282587Y169298D03*
X275894Y218660D03*
X275894Y224660D03*
X275894Y265117D03*
X275894Y271117D03*
X239130Y220085D03*
X233130Y220085D03*
D22*
X295185Y188195D03*
X295185Y203943D03*
D18*
X282587Y271117D03*
X282587Y265117D03*
X275894Y186376D03*
X275894Y192376D03*
X282587Y224660D03*
X282587Y218660D03*
D22*
X295185Y155124D03*
X295185Y170872D03*
X295185Y221266D03*
X295185Y237014D03*
D18*
X239130Y226778D03*
X233130Y226778D03*
X269201Y218660D03*
X269201Y224660D03*
D23*
X233084Y233700D03*
X269184Y269000D03*
X46184Y41400D03*
X86084Y81300D03*
X269184Y236000D03*
X44584Y138700D03*
X88784Y30800D03*
X269184Y172900D03*
X269184Y203300D03*
X79084Y105100D03*
X238984Y180300D03*
X243284Y200200D03*
X234084Y161100D03*
X234584Y201400D03*
X227784Y213400D03*
X80284Y140900D03*
X141984Y231000D03*
M02*
