G70*
%FSLAX55Y55*%
%ADD11R,0.05906X0.05906*%
%ADD12C,0.05906*%
%ADD13R,0.09843X0.09843*%
%ADD14C,0.09843*%
D11*
X63295Y227250D03*
D12*
X63295Y217250D03*
X63295Y207250D03*
X63295Y197250D03*
X63295Y187250D03*
X63276Y177250D03*
X63276Y167250D03*
X63276Y157250D03*
D13*
X41642Y155321D03*
D14*
X41642Y169101D03*
X41642Y182880D03*
X41642Y196660D03*
D11*
X161524Y366030D03*
D12*
X161524Y356030D03*
X161524Y346030D03*
X161524Y336030D03*
X161524Y326030D03*
X161504Y316030D03*
D11*
X109102Y197093D03*
D12*
X109102Y187093D03*
X109102Y177093D03*
X109102Y167093D03*
X109102Y157093D03*
X109083Y147093D03*
X109083Y137093D03*
X109083Y127093D03*
X109083Y117093D03*
X109083Y107093D03*
X109083Y97093D03*
X109083Y87093D03*
X109083Y77093D03*
X109083Y67093D03*
X109083Y57093D03*
X219319Y57093D03*
X219319Y67093D03*
X219319Y77093D03*
X219319Y87093D03*
X219319Y97093D03*
X219319Y107093D03*
X219319Y117093D03*
X219319Y127093D03*
X219319Y137093D03*
X219319Y147093D03*
X219319Y157093D03*
X219319Y167093D03*
X219319Y177093D03*
X219319Y187093D03*
X219319Y197093D03*
D11*
X86839Y262605D03*
D12*
X96839Y262605D03*
X106839Y262605D03*
X116839Y262605D03*
X126839Y262605D03*
X136839Y262585D03*
X146839Y262585D03*
X156839Y262585D03*
D11*
X189063Y363943D03*
D12*
X189063Y353943D03*
X189063Y343943D03*
X189063Y333943D03*
X189063Y323943D03*
X189043Y313943D03*
D11*
X316406Y59317D03*
D12*
X306406Y59317D03*
X296406Y59317D03*
X286406Y59317D03*
X276406Y59317D03*
X266406Y59337D03*
X256406Y59337D03*
X246406Y59337D03*
D13*
X41642Y221857D03*
D14*
X41642Y235636D03*
X41642Y249416D03*
X41642Y263195D03*
D11*
X257114Y82231D03*
D12*
X267114Y82231D03*
X277114Y82231D03*
X287114Y82231D03*
X297114Y82231D03*
X307114Y82211D03*
D11*
X251091Y262841D03*
D12*
X251091Y252841D03*
X251091Y242841D03*
X251091Y232841D03*
X251091Y222841D03*
X251091Y212841D03*
X251091Y202841D03*
X251091Y192841D03*
X251091Y182841D03*
X251091Y172841D03*
D13*
X40854Y58471D03*
D14*
X40854Y72250D03*
X40854Y86030D03*
X40854Y99809D03*
D13*
X309358Y265557D03*
D14*
X309358Y251778D03*
X309358Y237998D03*
X309358Y224219D03*
D13*
X309358Y200203D03*
D14*
X309358Y186424D03*
X309358Y172644D03*
X309358Y158865D03*
M02*
