G70*
%FSLAX55Y55*%
%ADD11C,0.03150*%
%ADD12C,0.01969*%
%ADD13C,0.01575*%
%ADD14C,0.02362*%
%ADD15C,0.01200*%
%ADD16R,0.05906X0.05906*%
%ADD17C,0.05906*%
%ADD18R,0.09843X0.09843*%
%ADD19C,0.09843*%
%ADD20C,0.03150*%
D11*
X42184Y72250D02*
X40854Y72250D01*
D12*
X96839Y262605D02*
X97284Y262316D01*
X97284Y248050*
X168241Y177093*
X219319Y177093*
D13*
X238984Y180300D02*
X239034Y180300D01*
X239034Y195950*
X243284Y200200*
D14*
X251091Y172841D02*
X251091Y172606D01*
X239584Y161100*
X234084Y161100*
D12*
X161524Y326030D02*
X161524Y326589D01*
D11*
X161941Y327007D02*
X188460Y353526D01*
D12*
X188878Y353943D02*
X189063Y353943D01*
D11*
X161524Y326030D02*
X125064Y326030D01*
X74234Y275200*
X74234Y167509*
X63276Y156550*
X63276Y157250*
X63276Y156550D02*
X63276Y108451D01*
X41674Y86850*
X40854Y86030*
X41674Y86850D02*
X41674Y85650D01*
X73434Y85650*
X84877Y97093*
X109083Y97093*
X164041Y97093D02*
X109083Y97093D01*
X316406Y59317D02*
X305773Y69950D01*
X244833Y69950*
X257114Y82231*
X244833Y69950D02*
X234784Y69950D01*
X221927Y57093*
X219319Y57093*
X204041Y57093*
X164041Y97093*
X214041Y147093*
X219319Y147093*
D14*
X227577Y147093D01*
X234084Y153600*
X234084Y161100*
D13*
X109102Y197093D02*
X92084Y180075D01*
X92084Y118100*
X79084Y105100*
X234084Y201900D02*
X234084Y161100D01*
X234084Y201900D02*
X234584Y201400D01*
X234084Y201900D02*
X227784Y208200D01*
X227784Y213400*
X189043Y313943D02*
X177750Y302650D01*
X149684Y302650*
X126839Y279804*
X126839Y262605*
X80284Y140900D02*
X80284Y185250D01*
X100934Y205900*
X117284Y205900*
X166091Y157093*
X219319Y157093*
D12*
X219319Y187093D02*
X173241Y187093D01*
X106839Y253496*
X106839Y262605*
D13*
X219319Y197093D02*
X185362Y231050D01*
X141984Y231050*
X141984Y231000*
D14*
X63276Y167250D02*
X53034Y157009D01*
X53034Y127600*
X28684Y103250*
X28684Y70641*
X40854Y58471*
D15*
X06030Y397430D02*
X06030Y04945D01*
X335522Y04945*
X335522Y397430*
X06030Y397430*
X316258Y63666D02*
X320754Y63666D01*
X320754Y54969*
X312057Y54969*
X312057Y59465*
X304542Y66980*
X236015Y66980*
X224033Y54998*
G75*
G02X222556Y54190I-02106J02095*
G02X216143Y54122I-03237J02903*
G01X204041Y54122*
G75*
G02X201935Y54998I00000J02971*
G01X162811Y94122*
X112258Y94122*
G75*
G02X105907Y94122I-03176J02971*
G01X86108Y94122*
X75541Y83555*
G75*
G02X73434Y82680I-02106J02095*
G01X46210Y82680*
G75*
G02X34938Y83816I-05355J03350*
G02X42696Y92072I05917J02214*
G01X60305Y109682*
X60305Y154075*
G75*
G02X64053Y161529I02971J03176*
G01X71264Y168739*
X71264Y275200*
G75*
G02X72140Y277306I02971J-00000*
G01X122958Y328125*
G75*
G02X125064Y329000I02106J-02095*
G01X158348Y329000*
G75*
G02X161090Y330357I03176J-02971*
G01X162534Y331800*
G75*
G02X158448Y339104I-01010J04229*
G02X165753Y335020I03075J-03075*
G01X184715Y353981*
G75*
G02X192262Y356889I04348J-00038*
G02X188742Y349607I-03199J-02945*
G01X186778Y347643*
G75*
G02X192138Y340869I02285J-03700*
G02X185363Y346228I-03075J03075*
G01X165822Y326687*
G75*
G02X158348Y323059I-04299J-00657*
G01X126295Y323059*
X77205Y273970*
X77205Y167509*
G75*
G02X76329Y165402I-02971J00000*
G01X67583Y156657*
G75*
G02X66246Y154075I-04309J00594*
G01X66246Y108451*
G75*
G02X65370Y106345I-02971J00000*
G01X47646Y88620*
X72204Y88620*
X82771Y99188*
G75*
G02X84877Y100063I02106J-02095*
G01X105907Y100063*
G75*
G02X112258Y100063I03176J-02971*
G01X162811Y100063*
X211935Y149188*
G75*
G02X214041Y150063I02106J-02095*
G01X216143Y150063*
G75*
G02X222822Y149670I03176J-02971*
G01X226510Y149670*
X231507Y154667*
X231507Y159622*
G75*
G02X231901Y163114I02577J01478*
G01X231901Y200125*
G75*
G02X231616Y201281I02684J01275*
G01X226244Y206653*
G75*
G02X225601Y208200I01541J01547*
G01X225601Y211386*
G75*
G02X227784Y216370I02183J02014*
G02X229967Y211386I00000J-02971*
G01X229967Y209104*
X234704Y204368*
G75*
G02X236267Y198952I-00119J-02968*
G01X236267Y181501*
G75*
G02X236851Y182367I02718J-01202*
G01X236851Y195950*
G75*
G02X237494Y197497I02183J-00000*
G01X240316Y200319*
G75*
G02X245384Y202301I02968J-00119*
G02X243404Y197232I-02100J-02101*
G01X241217Y195046*
X241217Y182259*
G75*
G02X236267Y179099I-02233J-01959*
G01X236267Y163677*
X238517Y163677*
X246827Y171987*
G75*
G02X254016Y176058I04264J00854*
G02X250644Y168516I-02926J-03217*
G01X241411Y159282*
G75*
G02X239584Y158523I-01827J01818*
G01X236661Y158523*
X236661Y153600*
G75*
G02X235902Y151774I-02577J00000*
G01X229404Y145275*
G75*
G02X227577Y144516I-01827J01818*
G01X222822Y144516*
G75*
G02X216143Y144122I-03503J02577*
G01X215272Y144122*
X168242Y97093*
X205272Y60063*
X216143Y60063*
G75*
G02X221492Y60859I03176J-02971*
G01X232678Y72045*
G75*
G02X234784Y72920I02106J-02095*
G01X243603Y72920*
X252766Y82083*
X252766Y86579*
X261463Y86579*
X261463Y77882*
X256967Y77882*
X252005Y72920*
X305773Y72920*
G75*
G02X307879Y72045I-00000J-02971*
G01X316258Y63666*
X215558Y159276D02*
G75*
G02X223667Y157093I03761J-02183D01*
G02X215558Y154910I-04348J00000*
G01X166091Y154910*
G75*
G02X164545Y155552I00000J02183*
G01X116380Y203717*
X101839Y203717*
X82467Y184346*
X82467Y142914*
G75*
G02X80285Y137930I-02183J-02014*
G02X78101Y142914I-00000J02971*
G01X78101Y185250*
G75*
G02X78744Y186797I02183J-00000*
G01X99388Y207441*
G75*
G02X100934Y208083I01547J-01541*
G01X117284Y208083*
G75*
G02X118831Y207441I-00000J-02183*
G01X166996Y159276*
X215558Y159276*
X215680Y179473D02*
G75*
G02X223667Y177094I03639J-02380D01*
G02X215680Y174713I-04349J-00000*
G01X168252Y174713*
G75*
G02X166558Y175410I-00010J02380*
G01X95601Y246367*
G75*
G02X94904Y248060I01683J01683*
G01X94904Y258710*
G75*
G02X96304Y266920I01934J03895*
G02X99664Y259299I00535J-04316*
G01X99664Y249036*
X169227Y179473*
X215680Y179473*
X62621Y162952D02*
X55611Y155942D01*
X55611Y127600*
G75*
G02X54852Y125774I-02577J00000*
G01X31261Y102183*
X31261Y71708*
X38181Y64788*
X47171Y64788*
X47171Y52154*
X34537Y52154*
X34537Y61144*
X26867Y68814*
G75*
G02X26107Y70641I01818J01827*
G01X26107Y103250*
G75*
G02X26867Y105076I02577J-00000*
G01X50457Y128667*
X50457Y157009*
G75*
G02X51217Y158836I02577J-00000*
G01X58977Y166596*
G75*
G02X66350Y170325I04299J00655*
G02X62621Y162952I-03075J-03075*
G01X215680Y189473D02*
G75*
G02X223667Y187094I03639J-02380D01*
G02X215680Y184713I-04349J-00000*
G01X173252Y184713*
G75*
G02X171558Y185410I-00010J02380*
G01X105156Y251813*
G75*
G02X104459Y253506I01683J01683*
G01X104459Y258965*
G75*
G02X106838Y266953I02380J03639*
G02X109219Y258965I00000J-04349*
G01X109219Y254481*
X174227Y189473*
X215680Y189473*
X107841Y192744D02*
X94267Y179171D01*
X94267Y118100*
G75*
G02X93625Y116553I-02183J00000*
G01X82052Y104981*
G75*
G02X76984Y102999I-02968J00119*
G02X78965Y108068I02100J02101*
G01X89901Y119004*
X89901Y180075*
G75*
G02X90544Y181621I02183J-00000*
G01X104754Y195832*
X104754Y201441*
X113451Y201441*
X113451Y192744*
X107841Y192744*
X187928Y309740D02*
X179297Y301109D01*
G75*
G02X177750Y300467I-01547J01541*
G01X150589Y300467*
X129022Y278900*
X129022Y266365*
G75*
G02X126839Y258256I-02183J-03761*
G02X124656Y266365I00000J04348*
G01X124656Y279804*
G75*
G02X125298Y281351I02183J-00000*
G01X148138Y304191*
G75*
G02X149684Y304833I01547J-01541*
G01X176846Y304833*
X184840Y312828*
G75*
G02X192118Y317018I04203J01116*
G02X187928Y309740I-03075J-03075*
G01X218203Y201296D02*
G75*
G02X222394Y194018I01116J-04203D01*
G02X215116Y198208I-03075J03075*
G01X184458Y228867*
X144052Y228867*
G75*
G02X143943Y233233I-02067J02133*
G01X185362Y233233*
G75*
G02X186908Y232591I-00000J-02183*
G01X218203Y201296*
X35325Y215540D02*
X35325Y228174D01*
X47959Y228174*
X47959Y215540*
X35325Y215540*
X35325Y149004D02*
X35325Y161638D01*
X47959Y161638*
X47959Y149004*
X35325Y149004*
X303041Y193886D02*
X303041Y206520D01*
X315675Y206520*
X315675Y193886*
X303041Y193886*
X303041Y259241D02*
X303041Y271874D01*
X315675Y271874*
X315675Y259241*
X303041Y259241*
X303041Y172644D02*
G75*
G03X315675Y172644I06317J00000D01*
G03X303041Y172644I-06317J00000*
G01X35325Y249416D02*
G75*
G03X47959Y249416I06317J00000D01*
G03X35325Y249416I-06317J00000*
G01X35325Y235636D02*
G75*
G03X47959Y235636I06317J00000D01*
G03X35325Y235636I-06317J00000*
G01X35325Y182880D02*
G75*
G03X47959Y182880I06317J00000D01*
G03X35325Y182880I-06317J00000*
G01X35325Y169101D02*
G75*
G03X47959Y169101I06317J00000D01*
G03X35325Y169101I-06317J00000*
G01X303041Y237998D02*
G75*
G03X315675Y237998I06317J00000D01*
G03X303041Y237998I-06317J00000*
G01X157175Y361681D02*
X157175Y370378D01*
X165872Y370378*
X165872Y361681*
X157175Y361681*
X246742Y258493D02*
X246742Y267189D01*
X255439Y267189*
X255439Y258493*
X246742Y258493*
X214970Y87093D02*
G75*
G03X223667Y87093I04348J00000D01*
G03X214970Y87093I-04348J00000*
G01X104734Y147093D02*
G75*
G03X113431Y147093I04348J00000D01*
G03X104734Y147093I-04348J00000*
G01X157175Y346030D02*
G75*
G03X165872Y346030I04348J00000D01*
G03X157175Y346030I-04348J00000*
G01X282766Y82231D02*
G75*
G03X291463Y82231I04348J00000D01*
G03X282766Y82231I-04348J00000*
G01X152490Y262585D02*
G75*
G03X161187Y262585I04348J00000D01*
G03X152490Y262585I-04348J00000*
G01X104734Y87093D02*
G75*
G03X113431Y87093I04348J00000D01*
G03X104734Y87093I-04348J00000*
G01X246742Y202841D02*
G75*
G03X255439Y202841I04348J00000D01*
G03X246742Y202841I-04348J00000*
G01X104734Y57093D02*
G75*
G03X113431Y57093I04348J00000D01*
G03X104734Y57093I-04348J00000*
G01X104734Y137093D02*
G75*
G03X113431Y137093I04348J00000D01*
G03X104734Y137093I-04348J00000*
G01X104734Y77093D02*
G75*
G03X113431Y77093I04348J00000D01*
G03X104734Y77093I-04348J00000*
G01X104734Y127093D02*
G75*
G03X113431Y127093I04348J00000D01*
G03X104734Y127093I-04348J00000*
G01X157175Y356030D02*
G75*
G03X165872Y356030I04348J00000D01*
G03X157175Y356030I-04348J00000*
G01X104734Y117093D02*
G75*
G03X113431Y117093I04348J00000D01*
G03X104734Y117093I-04348J00000*
G01X184715Y323943D02*
G75*
G03X193411Y323943I04348J00000D01*
G03X184715Y323943I-04348J00000*
G01X58947Y197250D02*
G75*
G03X67644Y197250I04348J00000D01*
G03X58947Y197250I-04348J00000*
G01X214970Y127093D02*
G75*
G03X223667Y127093I04348J00000D01*
G03X214970Y127093I-04348J00000*
G01X58947Y187250D02*
G75*
G03X67644Y187250I04348J00000D01*
G03X58947Y187250I-04348J00000*
G01X132490Y262585D02*
G75*
G03X141187Y262585I04348J00000D01*
G03X132490Y262585I-04348J00000*
G01X246742Y242841D02*
G75*
G03X255439Y242841I04348J00000D01*
G03X246742Y242841I-04348J00000*
G01X104754Y167093D02*
G75*
G03X113451Y167093I04348J00000D01*
G03X104754Y167093I-04348J00000*
G01X214970Y77093D02*
G75*
G03X223667Y77093I04348J00000D01*
G03X214970Y77093I-04348J00000*
G01X104754Y177093D02*
G75*
G03X113451Y177093I04348J00000D01*
G03X104754Y177093I-04348J00000*
G01X58947Y207250D02*
G75*
G03X67644Y207250I04348J00000D01*
G03X58947Y207250I-04348J00000*
G01X262057Y59337D02*
G75*
G03X270754Y59337I04348J00000D01*
G03X262057Y59337I-04348J00000*
G01X214970Y117093D02*
G75*
G03X223667Y117093I04348J00000D01*
G03X214970Y117093I-04348J00000*
G01X246742Y222841D02*
G75*
G03X255439Y222841I04348J00000D01*
G03X246742Y222841I-04348J00000*
G01X104754Y157093D02*
G75*
G03X113451Y157093I04348J00000D01*
G03X104754Y157093I-04348J00000*
G01X246742Y212841D02*
G75*
G03X255439Y212841I04348J00000D01*
G03X246742Y212841I-04348J00000*
G01X302766Y82211D02*
G75*
G03X311463Y82211I04348J00000D01*
G03X302766Y82211I-04348J00000*
G01X58927Y177250D02*
G75*
G03X67624Y177250I04348J00000D01*
G03X58927Y177250I-04348J00000*
G01X292057Y59317D02*
G75*
G03X300754Y59317I04348J00000D01*
G03X292057Y59317I-04348J00000*
G01X214970Y107093D02*
G75*
G03X223667Y107093I04348J00000D01*
G03X214970Y107093I-04348J00000*
G01X292766Y82231D02*
G75*
G03X301463Y82231I04348J00000D01*
G03X292766Y82231I-04348J00000*
G01X214970Y97093D02*
G75*
G03X223667Y97093I04348J00000D01*
G03X214970Y97093I-04348J00000*
G01X246742Y232841D02*
G75*
G03X255439Y232841I04348J00000D01*
G03X246742Y232841I-04348J00000*
G01X142490Y262585D02*
G75*
G03X151187Y262585I04348J00000D01*
G03X142490Y262585I-04348J00000*
G01X246742Y252841D02*
G75*
G03X255439Y252841I04348J00000D01*
G03X246742Y252841I-04348J00000*
G01X272766Y82231D02*
G75*
G03X281463Y82231I04348J00000D01*
G03X272766Y82231I-04348J00000*
G01X184715Y333943D02*
G75*
G03X193411Y333943I04348J00000D01*
G03X184715Y333943I-04348J00000*
G01X272057Y59317D02*
G75*
G03X280754Y59317I04348J00000D01*
G03X272057Y59317I-04348J00000*
G01X246742Y192841D02*
G75*
G03X255439Y192841I04348J00000D01*
G03X246742Y192841I-04348J00000*
G01X58947Y217250D02*
G75*
G03X67644Y217250I04348J00000D01*
G03X58947Y217250I-04348J00000*
G01X214970Y167093D02*
G75*
G03X223667Y167093I04348J00000D01*
G03X214970Y167093I-04348J00000*
G01X252057Y59337D02*
G75*
G03X260754Y59337I04348J00000D01*
G03X252057Y59337I-04348J00000*
G01X242057Y59337D02*
G75*
G03X250754Y59337I04348J00000D01*
G03X242057Y59337I-04348J00000*
G01X282057Y59317D02*
G75*
G03X290754Y59317I04348J00000D01*
G03X282057Y59317I-04348J00000*
G01X06030Y05445D02*
X335522Y05445D01*
X06030Y06545D02*
X335522Y06545D01*
X06030Y07645D02*
X335522Y07645D01*
X06030Y08745D02*
X335522Y08745D01*
X06030Y09845D02*
X335522Y09845D01*
X06030Y10945D02*
X335522Y10945D01*
X06030Y12045D02*
X335522Y12045D01*
X06030Y13145D02*
X335522Y13145D01*
X06030Y14245D02*
X335522Y14245D01*
X06030Y15345D02*
X335522Y15345D01*
X06030Y16445D02*
X335522Y16445D01*
X06030Y17545D02*
X335522Y17545D01*
X06030Y18645D02*
X335522Y18645D01*
X06030Y19745D02*
X335522Y19745D01*
X06030Y20845D02*
X335522Y20845D01*
X06030Y21945D02*
X335522Y21945D01*
X06030Y23045D02*
X335522Y23045D01*
X06030Y24145D02*
X335522Y24145D01*
X06030Y25245D02*
X335522Y25245D01*
X06030Y26345D02*
X335522Y26345D01*
X06030Y27445D02*
X335522Y27445D01*
X06030Y28545D02*
X335522Y28545D01*
X06030Y29645D02*
X335522Y29645D01*
X06030Y30745D02*
X335522Y30745D01*
X06030Y31845D02*
X335522Y31845D01*
X06030Y32945D02*
X335522Y32945D01*
X06030Y34045D02*
X335522Y34045D01*
X06030Y35145D02*
X335522Y35145D01*
X06030Y36245D02*
X335522Y36245D01*
X06030Y37345D02*
X335522Y37345D01*
X06030Y38445D02*
X335522Y38445D01*
X06030Y39545D02*
X335522Y39545D01*
X06030Y40645D02*
X335522Y40645D01*
X06030Y41745D02*
X335522Y41745D01*
X06030Y42845D02*
X335522Y42845D01*
X06030Y43945D02*
X335522Y43945D01*
X06030Y45045D02*
X335522Y45045D01*
X06030Y46145D02*
X335522Y46145D01*
X06030Y47245D02*
X335522Y47245D01*
X06030Y48345D02*
X335522Y48345D01*
X06030Y49445D02*
X335522Y49445D01*
X06030Y50545D02*
X335522Y50545D01*
X06030Y51645D02*
X335522Y51645D01*
X06030Y52745D02*
X34537Y52745D01*
X47171Y52745D02*
X109000Y52745D01*
X109165Y52745D02*
X219238Y52745D01*
X219400Y52745D02*
X335522Y52745D01*
X06030Y53845D02*
X34537Y53845D01*
X47171Y53845D02*
X106191Y53845D01*
X111974Y53845D02*
X216427Y53845D01*
X222211Y53845D02*
X335522Y53845D01*
X06030Y54945D02*
X34537Y54945D01*
X47171Y54945D02*
X105302Y54945D01*
X112864Y54945D02*
X201989Y54945D01*
X223979Y54945D02*
X335522Y54945D01*
X06030Y56045D02*
X34537Y56045D01*
X47171Y56045D02*
X104862Y56045D01*
X113303Y56045D02*
X200888Y56045D01*
X225080Y56045D02*
X243564Y56045D01*
X249247Y56045D02*
X253564Y56045D01*
X259247Y56045D02*
X263564Y56045D01*
X269247Y56045D02*
X273541Y56045D01*
X279270Y56045D02*
X283541Y56045D01*
X289270Y56045D02*
X293541Y56045D01*
X299270Y56045D02*
X312057Y56045D01*
X320754Y56045D02*
X335522Y56045D01*
X06030Y57145D02*
X34537Y57145D01*
X47171Y57145D02*
X104735Y57145D01*
X113431Y57145D02*
X199788Y57145D01*
X226180Y57145D02*
X242650Y57145D01*
X250161Y57145D02*
X252650Y57145D01*
X260161Y57145D02*
X262650Y57145D01*
X270161Y57145D02*
X272638Y57145D01*
X280173Y57145D02*
X282638Y57145D01*
X290173Y57145D02*
X292638Y57145D01*
X300173Y57145D02*
X312057Y57145D01*
X320754Y57145D02*
X335522Y57145D01*
X06030Y58245D02*
X34537Y58245D01*
X47171Y58245D02*
X104890Y58245D01*
X113276Y58245D02*
X198688Y58245D01*
X227280Y58245D02*
X242196Y58245D01*
X250615Y58245D02*
X252196Y58245D01*
X260615Y58245D02*
X262196Y58245D01*
X270615Y58245D02*
X272191Y58245D01*
X280620Y58245D02*
X282191Y58245D01*
X290620Y58245D02*
X292191Y58245D01*
X300620Y58245D02*
X312057Y58245D01*
X320754Y58245D02*
X335522Y58245D01*
X06030Y59345D02*
X34537Y59345D01*
X47171Y59345D02*
X105363Y59345D01*
X112802Y59345D02*
X197588Y59345D01*
X228380Y59345D02*
X242057Y59345D01*
X250754Y59345D02*
X252057Y59345D01*
X260754Y59345D02*
X262057Y59345D01*
X270754Y59345D02*
X272057Y59345D01*
X280754Y59345D02*
X282057Y59345D01*
X290754Y59345D02*
X292057Y59345D01*
X300754Y59345D02*
X312057Y59345D01*
X320754Y59345D02*
X335522Y59345D01*
X06030Y60445D02*
X34537Y60445D01*
X47171Y60445D02*
X106313Y60445D01*
X111852Y60445D02*
X196488Y60445D01*
X204890Y60445D02*
X216549Y60445D01*
X229480Y60445D02*
X242201Y60445D01*
X250610Y60445D02*
X252201Y60445D01*
X260610Y60445D02*
X262201Y60445D01*
X270610Y60445D02*
X272206Y60445D01*
X280605Y60445D02*
X282206Y60445D01*
X290605Y60445D02*
X292206Y60445D01*
X300605Y60445D02*
X311077Y60445D01*
X320754Y60445D02*
X335522Y60445D01*
X06030Y61545D02*
X34136Y61545D01*
X47171Y61545D02*
X195388Y61545D01*
X203790Y61545D02*
X222179Y61545D01*
X230580Y61545D02*
X242660Y61545D01*
X250151Y61545D02*
X252660Y61545D01*
X260151Y61545D02*
X262660Y61545D01*
X270151Y61545D02*
X272671Y61545D01*
X280140Y61545D02*
X282671Y61545D01*
X290140Y61545D02*
X292671Y61545D01*
X300140Y61545D02*
X309977Y61545D01*
X320754Y61545D02*
X335522Y61545D01*
X06030Y62645D02*
X33036Y62645D01*
X47171Y62645D02*
X194288Y62645D01*
X202690Y62645D02*
X223279Y62645D01*
X231680Y62645D02*
X243583Y62645D01*
X249228Y62645D02*
X253583Y62645D01*
X259228Y62645D02*
X263583Y62645D01*
X269228Y62645D02*
X273607Y62645D01*
X279204Y62645D02*
X283607Y62645D01*
X289204Y62645D02*
X293607Y62645D01*
X299204Y62645D02*
X308877Y62645D01*
X320754Y62645D02*
X335522Y62645D01*
X06030Y63745D02*
X31936Y63745D01*
X47171Y63745D02*
X193188Y63745D01*
X201590Y63745D02*
X224379Y63745D01*
X232780Y63745D02*
X307777Y63745D01*
X316178Y63745D02*
X335522Y63745D01*
X06030Y64845D02*
X30836Y64845D01*
X38124Y64845D02*
X192088Y64845D01*
X200490Y64845D02*
X225479Y64845D01*
X233880Y64845D02*
X306677Y64845D01*
X315078Y64845D02*
X335522Y64845D01*
X06030Y65945D02*
X29736Y65945D01*
X37024Y65945D02*
X190988Y65945D01*
X199390Y65945D02*
X226579Y65945D01*
X234980Y65945D02*
X305577Y65945D01*
X313978Y65945D02*
X335522Y65945D01*
X06030Y67045D02*
X28636Y67045D01*
X35924Y67045D02*
X189888Y67045D01*
X198290Y67045D02*
X227679Y67045D01*
X312878Y67045D02*
X335522Y67045D01*
X06030Y68145D02*
X27536Y68145D01*
X34824Y68145D02*
X188788Y68145D01*
X197190Y68145D02*
X228779Y68145D01*
X311778Y68145D02*
X335522Y68145D01*
X06030Y69245D02*
X26518Y69245D01*
X33724Y69245D02*
X187688Y69245D01*
X196090Y69245D02*
X229879Y69245D01*
X310678Y69245D02*
X335522Y69245D01*
X06030Y70345D02*
X26125Y70345D01*
X32624Y70345D02*
X186588Y70345D01*
X194990Y70345D02*
X230979Y70345D01*
X309578Y70345D02*
X335522Y70345D01*
X06030Y71445D02*
X26107Y71445D01*
X31524Y71445D02*
X185488Y71445D01*
X193890Y71445D02*
X232079Y71445D01*
X308478Y71445D02*
X335522Y71445D01*
X06030Y72545D02*
X26107Y72545D01*
X31261Y72545D02*
X184388Y72545D01*
X192790Y72545D02*
X233339Y72545D01*
X307218Y72545D02*
X335522Y72545D01*
X06030Y73645D02*
X26107Y73645D01*
X31261Y73645D02*
X106433Y73645D01*
X111733Y73645D02*
X183288Y73645D01*
X191690Y73645D02*
X216669Y73645D01*
X221969Y73645D02*
X244328Y73645D01*
X252730Y73645D02*
X335522Y73645D01*
X06030Y74745D02*
X26107Y74745D01*
X31261Y74745D02*
X105422Y74745D01*
X112743Y74745D02*
X182188Y74745D01*
X190590Y74745D02*
X215659Y74745D01*
X222979Y74745D02*
X245428Y74745D01*
X253830Y74745D02*
X335522Y74745D01*
X06030Y75845D02*
X26107Y75845D01*
X31261Y75845D02*
X104917Y75845D01*
X113248Y75845D02*
X181088Y75845D01*
X189490Y75845D02*
X215153Y75845D01*
X223484Y75845D02*
X246528Y75845D01*
X254930Y75845D02*
X335522Y75845D01*
X06030Y76945D02*
X26107Y76945D01*
X31261Y76945D02*
X104737Y76945D01*
X113429Y76945D02*
X179988Y76945D01*
X188390Y76945D02*
X214973Y76945D01*
X223665Y76945D02*
X247628Y76945D01*
X256030Y76945D02*
X335522Y76945D01*
X06030Y78045D02*
X26107Y78045D01*
X31261Y78045D02*
X104840Y78045D01*
X113326Y78045D02*
X178888Y78045D01*
X187290Y78045D02*
X215076Y78045D01*
X223562Y78045D02*
X248728Y78045D01*
X261463Y78045D02*
X275935Y78045D01*
X278294Y78045D02*
X285935Y78045D01*
X288294Y78045D02*
X295935Y78045D01*
X298294Y78045D02*
X305867Y78045D01*
X308361Y78045D02*
X335522Y78045D01*
X06030Y79145D02*
X26107Y79145D01*
X31261Y79145D02*
X105249Y79145D01*
X112916Y79145D02*
X177788Y79145D01*
X186190Y79145D02*
X215485Y79145D01*
X223153Y79145D02*
X249828Y79145D01*
X261463Y79145D02*
X274050Y79145D01*
X280178Y79145D02*
X284050Y79145D01*
X290178Y79145D02*
X294050Y79145D01*
X300178Y79145D02*
X304030Y79145D01*
X310198Y79145D02*
X335522Y79145D01*
X06030Y80245D02*
X26107Y80245D01*
X31261Y80245D02*
X38316Y80245D01*
X43392Y80245D02*
X106087Y80245D01*
X112078Y80245D02*
X176688Y80245D01*
X185090Y80245D02*
X216324Y80245D01*
X222314Y80245D02*
X250928Y80245D01*
X261463Y80245D02*
X273245Y80245D01*
X280983Y80245D02*
X283245Y80245D01*
X290983Y80245D02*
X293245Y80245D01*
X300983Y80245D02*
X303235Y80245D01*
X310993Y80245D02*
X335522Y80245D01*
X06030Y81345D02*
X26107Y81345D01*
X31261Y81345D02*
X36617Y81345D01*
X45092Y81345D02*
X108174Y81345D01*
X109992Y81345D02*
X175588Y81345D01*
X183990Y81345D02*
X218410Y81345D01*
X220228Y81345D02*
X252028Y81345D01*
X261463Y81345D02*
X272857Y81345D01*
X281371Y81345D02*
X282857Y81345D01*
X291371Y81345D02*
X292857Y81345D01*
X301371Y81345D02*
X302853Y81345D01*
X311376Y81345D02*
X335522Y81345D01*
X06030Y82445D02*
X26107Y82445D01*
X31261Y82445D02*
X35653Y82445D01*
X46056Y82445D02*
X174488Y82445D01*
X182890Y82445D02*
X252766Y82445D01*
X261463Y82445D02*
X272771Y82445D01*
X281457Y82445D02*
X282771Y82445D01*
X291457Y82445D02*
X292771Y82445D01*
X301457Y82445D02*
X302772Y82445D01*
X311456Y82445D02*
X335522Y82445D01*
X06030Y83545D02*
X26107Y83545D01*
X31261Y83545D02*
X35047Y83545D01*
X75530Y83545D02*
X106568Y83545D01*
X111597Y83545D02*
X173388Y83545D01*
X181790Y83545D02*
X216804Y83545D01*
X221833Y83545D02*
X252766Y83545D01*
X261463Y83545D02*
X272969Y83545D01*
X281259Y83545D02*
X282969Y83545D01*
X291259Y83545D02*
X292969Y83545D01*
X301259Y83545D02*
X302976Y83545D01*
X311253Y83545D02*
X335522Y83545D01*
X06030Y84645D02*
X26107Y84645D01*
X31261Y84645D02*
X34691Y84645D01*
X76630Y84645D02*
X105489Y84645D01*
X112677Y84645D02*
X172288Y84645D01*
X180690Y84645D02*
X215725Y84645D01*
X222913Y84645D02*
X252766Y84645D01*
X261463Y84645D02*
X273498Y84645D01*
X280731Y84645D02*
X283498Y84645D01*
X290731Y84645D02*
X293498Y84645D01*
X300731Y84645D02*
X303511Y84645D01*
X310717Y84645D02*
X335522Y84645D01*
X06030Y85745D02*
X26107Y85745D01*
X31261Y85745D02*
X34544Y85745D01*
X77730Y85745D02*
X104948Y85745D01*
X113217Y85745D02*
X171188Y85745D01*
X179590Y85745D02*
X215185Y85745D01*
X223453Y85745D02*
X252766Y85745D01*
X261463Y85745D02*
X274554Y85745D01*
X279675Y85745D02*
X284554Y85745D01*
X289675Y85745D02*
X294554Y85745D01*
X299675Y85745D02*
X304581Y85745D01*
X309648Y85745D02*
X335522Y85745D01*
X06030Y86845D02*
X26107Y86845D01*
X31261Y86845D02*
X34590Y86845D01*
X78830Y86845D02*
X104741Y86845D01*
X113424Y86845D02*
X170088Y86845D01*
X178490Y86845D02*
X214978Y86845D01*
X223660Y86845D02*
X335522Y86845D01*
X06030Y87945D02*
X26107Y87945D01*
X31261Y87945D02*
X34835Y87945D01*
X79930Y87945D02*
X104819Y87945D01*
X113347Y87945D02*
X168988Y87945D01*
X177390Y87945D02*
X215055Y87945D01*
X223583Y87945D02*
X335522Y87945D01*
X06030Y89045D02*
X26107Y89045D01*
X31261Y89045D02*
X35304Y89045D01*
X48071Y89045D02*
X72629Y89045D01*
X81030Y89045D02*
X105197Y89045D01*
X112968Y89045D02*
X167888Y89045D01*
X176290Y89045D02*
X215433Y89045D01*
X223204Y89045D02*
X335522Y89045D01*
X06030Y90145D02*
X26107Y90145D01*
X31261Y90145D02*
X36062Y90145D01*
X49171Y90145D02*
X73729Y90145D01*
X82130Y90145D02*
X105986Y90145D01*
X112180Y90145D02*
X166788Y90145D01*
X175190Y90145D02*
X216222Y90145D01*
X222416Y90145D02*
X335522Y90145D01*
X06030Y91245D02*
X26107Y91245D01*
X31261Y91245D02*
X37291Y91245D01*
X50271Y91245D02*
X74829Y91245D01*
X83230Y91245D02*
X107792Y91245D01*
X110374Y91245D02*
X165688Y91245D01*
X174090Y91245D02*
X218028Y91245D01*
X220610Y91245D02*
X335522Y91245D01*
X06030Y92345D02*
X26107Y92345D01*
X31261Y92345D02*
X40719Y92345D01*
X40990Y92345D02*
X42969Y92345D01*
X51371Y92345D02*
X75929Y92345D01*
X84330Y92345D02*
X164588Y92345D01*
X172990Y92345D02*
X335522Y92345D01*
X06030Y93445D02*
X26107Y93445D01*
X31261Y93445D02*
X44069Y93445D01*
X52471Y93445D02*
X77029Y93445D01*
X85430Y93445D02*
X106716Y93445D01*
X111450Y93445D02*
X163488Y93445D01*
X171890Y93445D02*
X216952Y93445D01*
X221686Y93445D02*
X335522Y93445D01*
X06030Y94545D02*
X26107Y94545D01*
X31261Y94545D02*
X45169Y94545D01*
X53571Y94545D02*
X78129Y94545D01*
X170790Y94545D02*
X215795Y94545D01*
X222843Y94545D02*
X335522Y94545D01*
X06030Y95645D02*
X26107Y95645D01*
X31261Y95645D02*
X46269Y95645D01*
X54671Y95645D02*
X79229Y95645D01*
X169690Y95645D02*
X215219Y95645D01*
X223419Y95645D02*
X335522Y95645D01*
X06030Y96745D02*
X26107Y96745D01*
X31261Y96745D02*
X47369Y96745D01*
X55771Y96745D02*
X80329Y96745D01*
X168590Y96745D02*
X214984Y96745D01*
X223653Y96745D02*
X335522Y96745D01*
X06030Y97845D02*
X26107Y97845D01*
X31261Y97845D02*
X48469Y97845D01*
X56871Y97845D02*
X81429Y97845D01*
X168995Y97845D02*
X215036Y97845D01*
X223602Y97845D02*
X335522Y97845D01*
X06030Y98945D02*
X26107Y98945D01*
X31261Y98945D02*
X49569Y98945D01*
X57971Y98945D02*
X82529Y98945D01*
X170095Y98945D02*
X215385Y98945D01*
X223253Y98945D02*
X335522Y98945D01*
X06030Y100045D02*
X26107Y100045D01*
X31261Y100045D02*
X50669Y100045D01*
X59071Y100045D02*
X84550Y100045D01*
X171195Y100045D02*
X216126Y100045D01*
X222511Y100045D02*
X335522Y100045D01*
X06030Y101145D02*
X26107Y101145D01*
X31261Y101145D02*
X51769Y101145D01*
X60171Y101145D02*
X107506Y101145D01*
X110659Y101145D02*
X163893Y101145D01*
X172295Y101145D02*
X217742Y101145D01*
X220896Y101145D02*
X335522Y101145D01*
X06030Y102245D02*
X26107Y102245D01*
X31324Y102245D02*
X52869Y102245D01*
X61271Y102245D02*
X78263Y102245D01*
X79905Y102245D02*
X164993Y102245D01*
X173395Y102245D02*
X335522Y102245D01*
X06030Y103345D02*
X26109Y103345D01*
X32424Y103345D02*
X53969Y103345D01*
X62371Y103345D02*
X76687Y103345D01*
X81481Y103345D02*
X166093Y103345D01*
X174495Y103345D02*
X217113Y103345D01*
X221524Y103345D02*
X335522Y103345D01*
X06030Y104445D02*
X26401Y104445D01*
X33524Y104445D02*
X55069Y104445D01*
X63471Y104445D02*
X76187Y104445D01*
X81982Y104445D02*
X167193Y104445D01*
X175595Y104445D02*
X215869Y104445D01*
X222768Y104445D02*
X335522Y104445D01*
X06030Y105545D02*
X27335Y105545D01*
X34624Y105545D02*
X56169Y105545D01*
X64571Y105545D02*
X76147Y105545D01*
X82617Y105545D02*
X168293Y105545D01*
X176695Y105545D02*
X215255Y105545D01*
X223383Y105545D02*
X335522Y105545D01*
X06030Y106645D02*
X28435Y106645D01*
X35724Y106645D02*
X57269Y106645D01*
X65634Y106645D02*
X76548Y106645D01*
X83717Y106645D02*
X169393Y106645D01*
X177795Y106645D02*
X214994Y106645D01*
X223644Y106645D02*
X335522Y106645D01*
X06030Y107745D02*
X29535Y107745D01*
X36824Y107745D02*
X58369Y107745D01*
X66161Y107745D02*
X77733Y107745D01*
X84817Y107745D02*
X170493Y107745D01*
X178895Y107745D02*
X215020Y107745D01*
X223618Y107745D02*
X335522Y107745D01*
X06030Y108845D02*
X30635Y108845D01*
X37924Y108845D02*
X59469Y108845D01*
X66246Y108845D02*
X79742Y108845D01*
X85917Y108845D02*
X171593Y108845D01*
X179995Y108845D02*
X215339Y108845D01*
X223299Y108845D02*
X335522Y108845D01*
X06030Y109945D02*
X31735Y109945D01*
X39024Y109945D02*
X60305Y109945D01*
X66246Y109945D02*
X80842Y109945D01*
X87017Y109945D02*
X172693Y109945D01*
X181095Y109945D02*
X216037Y109945D01*
X222601Y109945D02*
X335522Y109945D01*
X06030Y111045D02*
X32835Y111045D01*
X40124Y111045D02*
X60305Y111045D01*
X66246Y111045D02*
X81942Y111045D01*
X88117Y111045D02*
X173793Y111045D01*
X182195Y111045D02*
X217506Y111045D01*
X221132Y111045D02*
X335522Y111045D01*
X06030Y112145D02*
X33935Y112145D01*
X41224Y112145D02*
X60305Y112145D01*
X66246Y112145D02*
X83042Y112145D01*
X89217Y112145D02*
X174893Y112145D01*
X183295Y112145D02*
X335522Y112145D01*
X06030Y113245D02*
X35035Y113245D01*
X42324Y113245D02*
X60305Y113245D01*
X66246Y113245D02*
X84142Y113245D01*
X90317Y113245D02*
X107057Y113245D01*
X111109Y113245D02*
X175993Y113245D01*
X184395Y113245D02*
X217293Y113245D01*
X221345Y113245D02*
X335522Y113245D01*
X06030Y114345D02*
X36135Y114345D01*
X43424Y114345D02*
X60305Y114345D01*
X66246Y114345D02*
X85242Y114345D01*
X91417Y114345D02*
X105712Y114345D01*
X112453Y114345D02*
X177093Y114345D01*
X185495Y114345D02*
X215949Y114345D01*
X222689Y114345D02*
X335522Y114345D01*
X06030Y115445D02*
X37235Y115445D01*
X44524Y115445D02*
X60305Y115445D01*
X66246Y115445D02*
X86342Y115445D01*
X92517Y115445D02*
X105059Y115445D01*
X113107Y115445D02*
X178193Y115445D01*
X186595Y115445D02*
X215295Y115445D01*
X223343Y115445D02*
X335522Y115445D01*
X06030Y116545D02*
X38335Y116545D01*
X45624Y116545D02*
X60305Y116545D01*
X66246Y116545D02*
X87442Y116545D01*
X93617Y116545D02*
X104769Y116545D01*
X113396Y116545D02*
X179293Y116545D01*
X187695Y116545D02*
X215005Y116545D01*
X223633Y116545D02*
X335522Y116545D01*
X06030Y117645D02*
X39435Y117645D01*
X46724Y117645D02*
X60305Y117645D01*
X66246Y117645D02*
X88542Y117645D01*
X94219Y117645D02*
X104769Y117645D01*
X113396Y117645D02*
X180393Y117645D01*
X188795Y117645D02*
X215006Y117645D01*
X223632Y117645D02*
X335522Y117645D01*
X06030Y118745D02*
X40535Y118745D01*
X47824Y118745D02*
X60305Y118745D01*
X66246Y118745D02*
X89642Y118745D01*
X94267Y118745D02*
X105060Y118745D01*
X113105Y118745D02*
X181493Y118745D01*
X189895Y118745D02*
X215297Y118745D01*
X223341Y118745D02*
X335522Y118745D01*
X06030Y119845D02*
X41635Y119845D01*
X48924Y119845D02*
X60305Y119845D01*
X66246Y119845D02*
X89901Y119845D01*
X94267Y119845D02*
X105716Y119845D01*
X112449Y119845D02*
X182593Y119845D01*
X190995Y119845D02*
X215952Y119845D01*
X222685Y119845D02*
X335522Y119845D01*
X06030Y120945D02*
X42735Y120945D01*
X50024Y120945D02*
X60305Y120945D01*
X66246Y120945D02*
X89901Y120945D01*
X94267Y120945D02*
X107066Y120945D01*
X111100Y120945D02*
X183693Y120945D01*
X192095Y120945D02*
X217302Y120945D01*
X221336Y120945D02*
X335522Y120945D01*
X06030Y122045D02*
X43835Y122045D01*
X51124Y122045D02*
X60305Y122045D01*
X66246Y122045D02*
X89901Y122045D01*
X94267Y122045D02*
X184793Y122045D01*
X193195Y122045D02*
X335522Y122045D01*
X06030Y123145D02*
X44935Y123145D01*
X52224Y123145D02*
X60305Y123145D01*
X66246Y123145D02*
X89901Y123145D01*
X94267Y123145D02*
X107259Y123145D01*
X110906Y123145D02*
X185893Y123145D01*
X194295Y123145D02*
X217495Y123145D01*
X221142Y123145D02*
X335522Y123145D01*
X06030Y124245D02*
X46035Y124245D01*
X53324Y124245D02*
X60305Y124245D01*
X66246Y124245D02*
X89901Y124245D01*
X94267Y124245D02*
X105796Y124245D01*
X112369Y124245D02*
X186993Y124245D01*
X195395Y124245D02*
X216033Y124245D01*
X222605Y124245D02*
X335522Y124245D01*
X06030Y125345D02*
X47135Y125345D01*
X54424Y125345D02*
X60305Y125345D01*
X66246Y125345D02*
X89901Y125345D01*
X94267Y125345D02*
X105101Y125345D01*
X113064Y125345D02*
X188093Y125345D01*
X196495Y125345D02*
X215337Y125345D01*
X223301Y125345D02*
X335522Y125345D01*
X06030Y126445D02*
X48235Y126445D01*
X55338Y126445D02*
X60305Y126445D01*
X66246Y126445D02*
X89901Y126445D01*
X94267Y126445D02*
X104783Y126445D01*
X113383Y126445D02*
X189193Y126445D01*
X197595Y126445D02*
X215019Y126445D01*
X223619Y126445D02*
X335522Y126445D01*
X06030Y127545D02*
X49335Y127545D01*
X55610Y127545D02*
X60305Y127545D01*
X66246Y127545D02*
X89901Y127545D01*
X94267Y127545D02*
X104758Y127545D01*
X113408Y127545D02*
X190293Y127545D01*
X198695Y127545D02*
X214994Y127545D01*
X223644Y127545D02*
X335522Y127545D01*
X06030Y128645D02*
X50435Y128645D01*
X55611Y128645D02*
X60305Y128645D01*
X66246Y128645D02*
X89901Y128645D01*
X94267Y128645D02*
X105021Y128645D01*
X113145Y128645D02*
X191393Y128645D01*
X199795Y128645D02*
X215257Y128645D01*
X223381Y128645D02*
X335522Y128645D01*
X06030Y129745D02*
X50457Y129745D01*
X55611Y129745D02*
X60305Y129745D01*
X66246Y129745D02*
X89901Y129745D01*
X94267Y129745D02*
X105637Y129745D01*
X112529Y129745D02*
X192493Y129745D01*
X200895Y129745D02*
X215873Y129745D01*
X222765Y129745D02*
X335522Y129745D01*
X06030Y130845D02*
X50457Y130845D01*
X55611Y130845D02*
X60305Y130845D01*
X66246Y130845D02*
X89901Y130845D01*
X94267Y130845D02*
X106885Y130845D01*
X111280Y130845D02*
X193593Y130845D01*
X201995Y130845D02*
X217121Y130845D01*
X221516Y130845D02*
X335522Y130845D01*
X06030Y131945D02*
X50457Y131945D01*
X55611Y131945D02*
X60305Y131945D01*
X66246Y131945D02*
X89901Y131945D01*
X94267Y131945D02*
X194693Y131945D01*
X203095Y131945D02*
X335522Y131945D01*
X06030Y133045D02*
X50457Y133045D01*
X55611Y133045D02*
X60305Y133045D01*
X66246Y133045D02*
X89901Y133045D01*
X94267Y133045D02*
X107494Y133045D01*
X110672Y133045D02*
X195793Y133045D01*
X204195Y133045D02*
X335522Y133045D01*
X06030Y134145D02*
X50457Y134145D01*
X55611Y134145D02*
X60305Y134145D01*
X66246Y134145D02*
X89901Y134145D01*
X94267Y134145D02*
X105886Y134145D01*
X112280Y134145D02*
X196893Y134145D01*
X205295Y134145D02*
X335522Y134145D01*
X06030Y135245D02*
X50457Y135245D01*
X55611Y135245D02*
X60305Y135245D01*
X66246Y135245D02*
X89901Y135245D01*
X94267Y135245D02*
X105146Y135245D01*
X113019Y135245D02*
X197993Y135245D01*
X206395Y135245D02*
X335522Y135245D01*
X06030Y136345D02*
X50457Y136345D01*
X55611Y136345D02*
X60305Y136345D01*
X66246Y136345D02*
X89901Y136345D01*
X94267Y136345D02*
X104799Y136345D01*
X113366Y136345D02*
X199093Y136345D01*
X207495Y136345D02*
X335522Y136345D01*
X06030Y137445D02*
X50457Y137445D01*
X55611Y137445D02*
X60305Y137445D01*
X66246Y137445D02*
X89901Y137445D01*
X94267Y137445D02*
X104749Y137445D01*
X113417Y137445D02*
X200193Y137445D01*
X208595Y137445D02*
X335522Y137445D01*
X06030Y138545D02*
X50457Y138545D01*
X55611Y138545D02*
X60305Y138545D01*
X66246Y138545D02*
X78474Y138545D01*
X82095Y138545D02*
X89901Y138545D01*
X94267Y138545D02*
X104984Y138545D01*
X113181Y138545D02*
X201293Y138545D01*
X209695Y138545D02*
X335522Y138545D01*
X06030Y139645D02*
X50457Y139645D01*
X55611Y139645D02*
X60305Y139645D01*
X66246Y139645D02*
X77592Y139645D01*
X82977Y139645D02*
X89901Y139645D01*
X94267Y139645D02*
X105562Y139645D01*
X112603Y139645D02*
X202393Y139645D01*
X210795Y139645D02*
X335522Y139645D01*
X06030Y140745D02*
X50457Y140745D01*
X55611Y140745D02*
X60305Y140745D01*
X66246Y140745D02*
X77318Y140745D01*
X83251Y140745D02*
X89901Y140745D01*
X94267Y140745D02*
X106723Y140745D01*
X111443Y140745D02*
X203493Y140745D01*
X211895Y140745D02*
X335522Y140745D01*
X06030Y141845D02*
X50457Y141845D01*
X55611Y141845D02*
X60305Y141845D01*
X66246Y141845D02*
X77468Y141845D01*
X83100Y141845D02*
X89901Y141845D01*
X94267Y141845D02*
X204593Y141845D01*
X212995Y141845D02*
X335522Y141845D01*
X06030Y142945D02*
X50457Y142945D01*
X55611Y142945D02*
X60305Y142945D01*
X66246Y142945D02*
X78101Y142945D01*
X82467Y142945D02*
X89901Y142945D01*
X94267Y142945D02*
X107777Y142945D01*
X110389Y142945D02*
X205693Y142945D01*
X214095Y142945D02*
X218013Y142945D01*
X220624Y142945D02*
X335522Y142945D01*
X06030Y144045D02*
X50457Y144045D01*
X55611Y144045D02*
X60305Y144045D01*
X66246Y144045D02*
X78101Y144045D01*
X82467Y144045D02*
X89901Y144045D01*
X94267Y144045D02*
X105981Y144045D01*
X112184Y144045D02*
X206793Y144045D01*
X215195Y144045D02*
X216217Y144045D01*
X222421Y144045D02*
X335522Y144045D01*
X06030Y145145D02*
X50457Y145145D01*
X55611Y145145D02*
X60305Y145145D01*
X66246Y145145D02*
X78101Y145145D01*
X82467Y145145D02*
X89901Y145145D01*
X94267Y145145D02*
X105195Y145145D01*
X112971Y145145D02*
X207893Y145145D01*
X229264Y145145D02*
X335522Y145145D01*
X06030Y146245D02*
X50457Y146245D01*
X55611Y146245D02*
X60305Y146245D01*
X66246Y146245D02*
X78101Y146245D01*
X82467Y146245D02*
X89901Y146245D01*
X94267Y146245D02*
X104818Y146245D01*
X113348Y146245D02*
X208993Y146245D01*
X230374Y146245D02*
X335522Y146245D01*
X06030Y147345D02*
X50457Y147345D01*
X55611Y147345D02*
X60305Y147345D01*
X66246Y147345D02*
X78101Y147345D01*
X82467Y147345D02*
X89901Y147345D01*
X94267Y147345D02*
X104742Y147345D01*
X113424Y147345D02*
X210093Y147345D01*
X231474Y147345D02*
X335522Y147345D01*
X06030Y148445D02*
X50457Y148445D01*
X55611Y148445D02*
X60305Y148445D01*
X66246Y148445D02*
X78101Y148445D01*
X82467Y148445D02*
X89901Y148445D01*
X94267Y148445D02*
X104950Y148445D01*
X113215Y148445D02*
X211193Y148445D01*
X232574Y148445D02*
X335522Y148445D01*
X06030Y149545D02*
X35325Y149545D01*
X47959Y149545D02*
X50457Y149545D01*
X55611Y149545D02*
X60305Y149545D01*
X66246Y149545D02*
X78101Y149545D01*
X82467Y149545D02*
X89901Y149545D01*
X94267Y149545D02*
X105492Y149545D01*
X112674Y149545D02*
X212365Y149545D01*
X233674Y149545D02*
X335522Y149545D01*
X06030Y150645D02*
X35325Y150645D01*
X47959Y150645D02*
X50457Y150645D01*
X55611Y150645D02*
X60305Y150645D01*
X66246Y150645D02*
X78101Y150645D01*
X82467Y150645D02*
X89901Y150645D01*
X94267Y150645D02*
X106575Y150645D01*
X111591Y150645D02*
X216811Y150645D01*
X221827Y150645D02*
X227485Y150645D01*
X234774Y150645D02*
X335522Y150645D01*
X06030Y151745D02*
X35325Y151745D01*
X47959Y151745D02*
X50457Y151745D01*
X55611Y151745D02*
X60305Y151745D01*
X66246Y151745D02*
X78101Y151745D01*
X82467Y151745D02*
X89901Y151745D01*
X94267Y151745D02*
X228585Y151745D01*
X235874Y151745D02*
X335522Y151745D01*
X06030Y152845D02*
X35325Y152845D01*
X47959Y152845D02*
X50457Y152845D01*
X55611Y152845D02*
X60305Y152845D01*
X66246Y152845D02*
X78101Y152845D01*
X82467Y152845D02*
X89901Y152845D01*
X94267Y152845D02*
X108172Y152845D01*
X110033Y152845D02*
X218389Y152845D01*
X220249Y152845D02*
X229685Y152845D01*
X236548Y152845D02*
X335522Y152845D01*
X06030Y153945D02*
X35325Y153945D01*
X47959Y153945D02*
X50457Y153945D01*
X55611Y153945D02*
X60305Y153945D01*
X66246Y153945D02*
X78101Y153945D01*
X82467Y153945D02*
X89901Y153945D01*
X94267Y153945D02*
X106102Y153945D01*
X112103Y153945D02*
X216319Y153945D01*
X222319Y153945D02*
X230785Y153945D01*
X236661Y153945D02*
X335522Y153945D01*
X06030Y155045D02*
X35325Y155045D01*
X47959Y155045D02*
X50457Y155045D01*
X55611Y155045D02*
X59528Y155045D01*
X67023Y155045D02*
X78101Y155045D01*
X82467Y155045D02*
X89901Y155045D01*
X94267Y155045D02*
X105266Y155045D01*
X112939Y155045D02*
X165334Y155045D01*
X223155Y155045D02*
X231507Y155045D01*
X236661Y155045D02*
X335522Y155045D01*
X06030Y156145D02*
X35325Y156145D01*
X47959Y156145D02*
X50457Y156145D01*
X55815Y156145D02*
X59070Y156145D01*
X67481Y156145D02*
X78101Y156145D01*
X82467Y156145D02*
X89901Y156145D01*
X94267Y156145D02*
X104858Y156145D01*
X113346Y156145D02*
X163952Y156145D01*
X223563Y156145D02*
X231507Y156145D01*
X236661Y156145D02*
X335522Y156145D01*
X06030Y157245D02*
X35325Y157245D01*
X47959Y157245D02*
X50468Y157245D01*
X56915Y157245D02*
X58927Y157245D01*
X68172Y157245D02*
X78101Y157245D01*
X82467Y157245D02*
X89901Y157245D01*
X94267Y157245D02*
X104757Y157245D01*
X113448Y157245D02*
X162852Y157245D01*
X223665Y157245D02*
X231507Y157245D01*
X236661Y157245D02*
X335522Y157245D01*
X06030Y158345D02*
X35325Y158345D01*
X47959Y158345D02*
X50831Y158345D01*
X58015Y158345D02*
X59067Y158345D01*
X69272Y158345D02*
X78101Y158345D01*
X82467Y158345D02*
X89901Y158345D01*
X94267Y158345D02*
X104938Y158345D01*
X113267Y158345D02*
X161752Y158345D01*
X223483Y158345D02*
X231507Y158345D01*
X236661Y158345D02*
X335522Y158345D01*
X06030Y159445D02*
X35325Y159445D01*
X47959Y159445D02*
X51826Y159445D01*
X59115Y159445D02*
X59522Y159445D01*
X70372Y159445D02*
X78101Y159445D01*
X82467Y159445D02*
X89901Y159445D01*
X94267Y159445D02*
X105445Y159445D01*
X112760Y159445D02*
X160652Y159445D01*
X166826Y159445D02*
X215662Y159445D01*
X222976Y159445D02*
X231507Y159445D01*
X241574Y159445D02*
X335522Y159445D01*
X06030Y160545D02*
X35325Y160545D01*
X47959Y160545D02*
X52926Y160545D01*
X60215Y160545D02*
X60438Y160545D01*
X71472Y160545D02*
X78101Y160545D01*
X82467Y160545D02*
X89901Y160545D01*
X94267Y160545D02*
X106459Y160545D01*
X111746Y160545D02*
X159552Y160545D01*
X165726Y160545D02*
X216675Y160545D01*
X221963Y160545D02*
X231166Y160545D01*
X242674Y160545D02*
X335522Y160545D01*
X06030Y161645D02*
X54026Y161645D01*
X61315Y161645D02*
X64170Y161645D01*
X72572Y161645D02*
X78101Y161645D01*
X82467Y161645D02*
X89901Y161645D01*
X94267Y161645D02*
X158452Y161645D01*
X164626Y161645D02*
X231164Y161645D01*
X243774Y161645D02*
X335522Y161645D01*
X06030Y162745D02*
X55126Y162745D01*
X62415Y162745D02*
X65270Y162745D01*
X73672Y162745D02*
X78101Y162745D01*
X82467Y162745D02*
X89901Y162745D01*
X94267Y162745D02*
X109020Y162745D01*
X109185Y162745D02*
X157352Y162745D01*
X163526Y162745D02*
X219236Y162745D01*
X219402Y162745D02*
X231611Y162745D01*
X244874Y162745D02*
X335522Y162745D01*
X06030Y163845D02*
X38137Y163845D01*
X45146Y163845D02*
X56226Y163845D01*
X65980Y163845D02*
X66370Y163845D01*
X74772Y163845D02*
X78101Y163845D01*
X82467Y163845D02*
X89901Y163845D01*
X94267Y163845D02*
X106211Y163845D01*
X111994Y163845D02*
X156252Y163845D01*
X162426Y163845D02*
X216427Y163845D01*
X222211Y163845D02*
X231901Y163845D01*
X236267Y163845D02*
X238685Y163845D01*
X245974Y163845D02*
X335522Y163845D01*
X06030Y164945D02*
X36884Y164945D01*
X46399Y164945D02*
X57326Y164945D01*
X66962Y164945D02*
X67470Y164945D01*
X75872Y164945D02*
X78101Y164945D01*
X82467Y164945D02*
X89901Y164945D01*
X94267Y164945D02*
X105321Y164945D01*
X112883Y164945D02*
X155152Y164945D01*
X161326Y164945D02*
X215538Y164945D01*
X223100Y164945D02*
X231901Y164945D01*
X236267Y164945D02*
X239785Y164945D01*
X247074Y164945D02*
X335522Y164945D01*
X06030Y166045D02*
X36113Y166045D01*
X47171Y166045D02*
X58426Y166045D01*
X67453Y166045D02*
X68570Y166045D01*
X76819Y166045D02*
X78101Y166045D01*
X82467Y166045D02*
X89901Y166045D01*
X94267Y166045D02*
X104882Y166045D01*
X113323Y166045D02*
X154052Y166045D01*
X160226Y166045D02*
X215099Y166045D01*
X223539Y166045D02*
X231901Y166045D01*
X236267Y166045D02*
X240885Y166045D01*
X248174Y166045D02*
X335522Y166045D01*
X06030Y167145D02*
X35635Y167145D01*
X47648Y167145D02*
X58928Y167145D01*
X67623Y167145D02*
X69670Y167145D01*
X77182Y167145D02*
X78101Y167145D01*
X82467Y167145D02*
X89901Y167145D01*
X94267Y167145D02*
X104754Y167145D01*
X113450Y167145D02*
X152952Y167145D01*
X159126Y167145D02*
X214971Y167145D01*
X223667Y167145D02*
X231901Y167145D01*
X236267Y167145D02*
X241985Y167145D01*
X249274Y167145D02*
X306249Y167145D01*
X312467Y167145D02*
X335522Y167145D01*
X06030Y168245D02*
X35383Y168245D01*
X47900Y168245D02*
X59043Y168245D01*
X67509Y168245D02*
X70770Y168245D01*
X77205Y168245D02*
X78101Y168245D01*
X82467Y168245D02*
X89901Y168245D01*
X94267Y168245D02*
X104909Y168245D01*
X113295Y168245D02*
X151852Y168245D01*
X158026Y168245D02*
X215126Y168245D01*
X223512Y168245D02*
X231901Y168245D01*
X236267Y168245D02*
X243085Y168245D01*
X250374Y168245D02*
X304825Y168245D01*
X313892Y168245D02*
X335522Y168245D01*
X06030Y169345D02*
X35330Y169345D01*
X47954Y169345D02*
X59465Y169345D01*
X67086Y169345D02*
X71264Y169345D01*
X77205Y169345D02*
X78101Y169345D01*
X82467Y169345D02*
X89901Y169345D01*
X94267Y169345D02*
X105383Y169345D01*
X112822Y169345D02*
X150752Y169345D01*
X156926Y169345D02*
X215599Y169345D01*
X223039Y169345D02*
X231901Y169345D01*
X236267Y169345D02*
X244185Y169345D01*
X253677Y169345D02*
X303971Y169345D01*
X314745Y169345D02*
X335522Y169345D01*
X06030Y170445D02*
X35470Y170445D01*
X47814Y170445D02*
X60326Y170445D01*
X66225Y170445D02*
X71264Y170445D01*
X77205Y170445D02*
X78101Y170445D01*
X82467Y170445D02*
X89901Y170445D01*
X94267Y170445D02*
X106333Y170445D01*
X111872Y170445D02*
X149652Y170445D01*
X155826Y170445D02*
X216549Y170445D01*
X222088Y170445D02*
X231901Y170445D01*
X236267Y170445D02*
X245285Y170445D01*
X254719Y170445D02*
X303436Y170445D01*
X315280Y170445D02*
X335522Y170445D01*
X06030Y171545D02*
X35817Y171545D01*
X47466Y171545D02*
X62595Y171545D01*
X63956Y171545D02*
X71264Y171545D01*
X77205Y171545D02*
X78101Y171545D01*
X82467Y171545D02*
X89901Y171545D01*
X94267Y171545D02*
X148552Y171545D01*
X154726Y171545D02*
X231901Y171545D01*
X236267Y171545D02*
X246385Y171545D01*
X255241Y171545D02*
X303138Y171545D01*
X315579Y171545D02*
X335522Y171545D01*
X06030Y172645D02*
X36413Y172645D01*
X46871Y172645D02*
X71264Y172645D01*
X77205Y172645D02*
X78101Y172645D01*
X82467Y172645D02*
X89901Y172645D01*
X94267Y172645D02*
X147452Y172645D01*
X153626Y172645D02*
X231901Y172645D01*
X236267Y172645D02*
X246747Y172645D01*
X255434Y172645D02*
X303041Y172645D01*
X315675Y172645D02*
X335522Y172645D01*
X06030Y173745D02*
X37360Y173745D01*
X45923Y173745D02*
X60702Y173745D01*
X65849Y173745D02*
X71264Y173745D01*
X77205Y173745D02*
X78101Y173745D01*
X82467Y173745D02*
X89901Y173745D01*
X94267Y173745D02*
X106327Y173745D01*
X111878Y173745D02*
X146352Y173745D01*
X152526Y173745D02*
X216544Y173745D01*
X222094Y173745D02*
X231901Y173745D01*
X236267Y173745D02*
X246837Y173745D01*
X255344Y173745D02*
X303138Y173745D01*
X315578Y173745D02*
X335522Y173745D01*
X06030Y174845D02*
X39014Y174845D01*
X44269Y174845D02*
X59653Y174845D01*
X66898Y174845D02*
X71264Y174845D01*
X77205Y174845D02*
X78101Y174845D01*
X82467Y174845D02*
X89901Y174845D01*
X94267Y174845D02*
X105380Y174845D01*
X112825Y174845D02*
X145252Y174845D01*
X151426Y174845D02*
X167459Y174845D01*
X223041Y174845D02*
X231901Y174845D01*
X236267Y174845D02*
X247232Y174845D01*
X254949Y174845D02*
X303437Y174845D01*
X315279Y174845D02*
X335522Y174845D01*
X06030Y175945D02*
X59128Y175945D01*
X67424Y175945D02*
X71264Y175945D01*
X77205Y175945D02*
X78101Y175945D01*
X82467Y175945D02*
X89901Y175945D01*
X94267Y175945D02*
X104908Y175945D01*
X113297Y175945D02*
X144152Y175945D01*
X150326Y175945D02*
X166023Y175945D01*
X223513Y175945D02*
X231901Y175945D01*
X236267Y175945D02*
X248046Y175945D01*
X254136Y175945D02*
X303973Y175945D01*
X314744Y175945D02*
X335522Y175945D01*
X06030Y177045D02*
X39222Y177045D01*
X44062Y177045D02*
X58932Y177045D01*
X67619Y177045D02*
X71264Y177045D01*
X77205Y177045D02*
X78101Y177045D01*
X82467Y177045D02*
X89901Y177045D01*
X94267Y177045D02*
X104754Y177045D01*
X113451Y177045D02*
X143052Y177045D01*
X149226Y177045D02*
X164923Y177045D01*
X223667Y177045D02*
X231901Y177045D01*
X236267Y177045D02*
X249980Y177045D01*
X252201Y177045D02*
X304827Y177045D01*
X313890Y177045D02*
X335522Y177045D01*
X06030Y178145D02*
X37460Y178145D01*
X45823Y178145D02*
X59020Y178145D01*
X67531Y178145D02*
X71264Y178145D01*
X77205Y178145D02*
X78101Y178145D01*
X82467Y178145D02*
X89901Y178145D01*
X94267Y178145D02*
X104883Y178145D01*
X113322Y178145D02*
X141952Y178145D01*
X148126Y178145D02*
X163823Y178145D01*
X223538Y178145D02*
X231901Y178145D01*
X236267Y178145D02*
X236940Y178145D01*
X241029Y178145D02*
X306253Y178145D01*
X312463Y178145D02*
X335522Y178145D01*
X06030Y179245D02*
X36475Y179245D01*
X46808Y179245D02*
X59412Y179245D01*
X67139Y179245D02*
X71264Y179245D01*
X77205Y179245D02*
X78101Y179245D01*
X82467Y179245D02*
X89901Y179245D01*
X94342Y179245D02*
X105324Y179245D01*
X112881Y179245D02*
X140852Y179245D01*
X147026Y179245D02*
X162723Y179245D01*
X223097Y179245D02*
X231901Y179245D01*
X241761Y179245D02*
X335522Y179245D01*
X06030Y180345D02*
X35856Y180345D01*
X47428Y180345D02*
X60221Y180345D01*
X66330Y180345D02*
X71264Y180345D01*
X77205Y180345D02*
X78101Y180345D01*
X82467Y180345D02*
X89918Y180345D01*
X95442Y180345D02*
X106216Y180345D01*
X111989Y180345D02*
X139752Y180345D01*
X145926Y180345D02*
X161623Y180345D01*
X168355Y180345D02*
X216433Y180345D01*
X222205Y180345D02*
X231901Y180345D01*
X241954Y180345D02*
X335522Y180345D01*
X06030Y181445D02*
X35490Y181445D01*
X47794Y181445D02*
X62130Y181445D01*
X64421Y181445D02*
X71264Y181445D01*
X77205Y181445D02*
X78101Y181445D01*
X82467Y181445D02*
X90385Y181445D01*
X96542Y181445D02*
X138652Y181445D01*
X144826Y181445D02*
X160523Y181445D01*
X167255Y181445D02*
X231901Y181445D01*
X241725Y181445D02*
X335522Y181445D01*
X06030Y182545D02*
X35334Y182545D01*
X47950Y182545D02*
X71264Y182545D01*
X77205Y182545D02*
X78101Y182545D01*
X82467Y182545D02*
X91467Y182545D01*
X97642Y182545D02*
X137552Y182545D01*
X143726Y182545D02*
X159423Y182545D01*
X166155Y182545D02*
X231901Y182545D01*
X236267Y182545D02*
X236851Y182545D01*
X241217Y182545D02*
X335522Y182545D01*
X06030Y183645D02*
X35371Y183645D01*
X47912Y183645D02*
X60864Y183645D01*
X65727Y183645D02*
X71264Y183645D01*
X77205Y183645D02*
X78101Y183645D01*
X82467Y183645D02*
X92567Y183645D01*
X98742Y183645D02*
X136452Y183645D01*
X142626Y183645D02*
X158323Y183645D01*
X165055Y183645D02*
X216669Y183645D01*
X221969Y183645D02*
X231901Y183645D01*
X236267Y183645D02*
X236851Y183645D01*
X241217Y183645D02*
X335522Y183645D01*
X06030Y184745D02*
X35606Y184745D01*
X47677Y184745D02*
X59741Y184745D01*
X66850Y184745D02*
X71264Y184745D01*
X77205Y184745D02*
X78101Y184745D01*
X82867Y184745D02*
X93667Y184745D01*
X99842Y184745D02*
X135352Y184745D01*
X141526Y184745D02*
X157223Y184745D01*
X163955Y184745D02*
X172850Y184745D01*
X222979Y184745D02*
X231901Y184745D01*
X236267Y184745D02*
X236851Y184745D01*
X241217Y184745D02*
X335522Y184745D01*
X06030Y185845D02*
X36064Y185845D01*
X47220Y185845D02*
X59180Y185845D01*
X67410Y185845D02*
X71264Y185845D01*
X77205Y185845D02*
X78184Y185845D01*
X83967Y185845D02*
X94767Y185845D01*
X100942Y185845D02*
X134252Y185845D01*
X140426Y185845D02*
X156123Y185845D01*
X162855Y185845D02*
X171123Y185845D01*
X223484Y185845D02*
X231901Y185845D01*
X236267Y185845D02*
X236851Y185845D01*
X241217Y185845D02*
X335522Y185845D01*
X06030Y186945D02*
X36806Y186945D01*
X46477Y186945D02*
X58958Y186945D01*
X67633Y186945D02*
X71264Y186945D01*
X77205Y186945D02*
X78892Y186945D01*
X85067Y186945D02*
X95867Y186945D01*
X102042Y186945D02*
X133152Y186945D01*
X139326Y186945D02*
X155023Y186945D01*
X161755Y186945D02*
X170023Y186945D01*
X223665Y186945D02*
X231901Y186945D01*
X236267Y186945D02*
X236851Y186945D01*
X241217Y186945D02*
X335522Y186945D01*
X06030Y188045D02*
X38005Y188045D01*
X45279Y188045D02*
X59020Y188045D01*
X67570Y188045D02*
X71264Y188045D01*
X77205Y188045D02*
X79992Y188045D01*
X86167Y188045D02*
X96967Y188045D01*
X103142Y188045D02*
X132052Y188045D01*
X138226Y188045D02*
X153923Y188045D01*
X160655Y188045D02*
X168923Y188045D01*
X223562Y188045D02*
X231901Y188045D01*
X236267Y188045D02*
X236851Y188045D01*
X241217Y188045D02*
X335522Y188045D01*
X06030Y189145D02*
X40833Y189145D01*
X42450Y189145D02*
X59381Y189145D01*
X67209Y189145D02*
X71264Y189145D01*
X77205Y189145D02*
X81092Y189145D01*
X87267Y189145D02*
X98067Y189145D01*
X104242Y189145D02*
X130952Y189145D01*
X137126Y189145D02*
X152823Y189145D01*
X159555Y189145D02*
X167823Y189145D01*
X223153Y189145D02*
X231901Y189145D01*
X236267Y189145D02*
X236851Y189145D01*
X241217Y189145D02*
X248799Y189145D01*
X253382Y189145D02*
X335522Y189145D01*
X06030Y190245D02*
X60143Y190245D01*
X66448Y190245D02*
X71264Y190245D01*
X77205Y190245D02*
X82192Y190245D01*
X88367Y190245D02*
X99167Y190245D01*
X105342Y190245D02*
X129852Y190245D01*
X136026Y190245D02*
X151723Y190245D01*
X158455Y190245D02*
X166723Y190245D01*
X173455Y190245D02*
X216324Y190245D01*
X222314Y190245D02*
X231901Y190245D01*
X236267Y190245D02*
X236851Y190245D01*
X241217Y190245D02*
X247602Y190245D01*
X254579Y190245D02*
X335522Y190245D01*
X06030Y191345D02*
X61832Y191345D01*
X64758Y191345D02*
X71264Y191345D01*
X77205Y191345D02*
X83292Y191345D01*
X89467Y191345D02*
X100267Y191345D01*
X106442Y191345D02*
X128752Y191345D01*
X134926Y191345D02*
X150623Y191345D01*
X157355Y191345D02*
X165623Y191345D01*
X172355Y191345D02*
X218410Y191345D01*
X220228Y191345D02*
X231901Y191345D01*
X236267Y191345D02*
X236851Y191345D01*
X241217Y191345D02*
X247007Y191345D01*
X255174Y191345D02*
X335522Y191345D01*
X06030Y192445D02*
X71264Y192445D01*
X77205Y192445D02*
X84392Y192445D01*
X90567Y192445D02*
X101367Y192445D01*
X107542Y192445D02*
X127652Y192445D01*
X133826Y192445D02*
X149523Y192445D01*
X156255Y192445D02*
X164523Y192445D01*
X171255Y192445D02*
X231901Y192445D01*
X236267Y192445D02*
X236851Y192445D01*
X241217Y192445D02*
X246760Y192445D01*
X255421Y192445D02*
X335522Y192445D01*
X06030Y193545D02*
X61019Y193545D01*
X65571Y193545D02*
X71264Y193545D01*
X77205Y193545D02*
X85492Y193545D01*
X91667Y193545D02*
X102467Y193545D01*
X113451Y193545D02*
X126552Y193545D01*
X132726Y193545D02*
X148423Y193545D01*
X155155Y193545D02*
X163423Y193545D01*
X170155Y193545D02*
X216805Y193545D01*
X221833Y193545D02*
X231901Y193545D01*
X236267Y193545D02*
X236851Y193545D01*
X241217Y193545D02*
X246800Y193545D01*
X255382Y193545D02*
X335522Y193545D01*
X06030Y194645D02*
X59814Y194645D01*
X66777Y194645D02*
X71264Y194645D01*
X77205Y194645D02*
X86592Y194645D01*
X92767Y194645D02*
X103567Y194645D01*
X113451Y194645D02*
X125452Y194645D01*
X131626Y194645D02*
X147323Y194645D01*
X154055Y194645D02*
X162323Y194645D01*
X169055Y194645D02*
X215725Y194645D01*
X222913Y194645D02*
X231901Y194645D01*
X236267Y194645D02*
X236851Y194645D01*
X241217Y194645D02*
X247134Y194645D01*
X255047Y194645D02*
X303041Y194645D01*
X315675Y194645D02*
X335522Y194645D01*
X06030Y195745D02*
X59216Y195745D01*
X67375Y195745D02*
X71264Y195745D01*
X77205Y195745D02*
X87692Y195745D01*
X93867Y195745D02*
X104667Y195745D01*
X113451Y195745D02*
X124352Y195745D01*
X130526Y195745D02*
X146223Y195745D01*
X152955Y195745D02*
X161223Y195745D01*
X167955Y195745D02*
X215185Y195745D01*
X223453Y195745D02*
X231901Y195745D01*
X236267Y195745D02*
X236851Y195745D01*
X241917Y195745D02*
X247854Y195745D01*
X254327Y195745D02*
X303041Y195745D01*
X315675Y195745D02*
X335522Y195745D01*
X06030Y196845D02*
X58966Y196845D01*
X67625Y196845D02*
X71264Y196845D01*
X77205Y196845D02*
X88792Y196845D01*
X94967Y196845D02*
X104754Y196845D01*
X113451Y196845D02*
X123252Y196845D01*
X129426Y196845D02*
X145123Y196845D01*
X151855Y196845D02*
X160123Y196845D01*
X166855Y196845D02*
X214978Y196845D01*
X223660Y196845D02*
X231901Y196845D01*
X236267Y196845D02*
X237043Y196845D01*
X243017Y196845D02*
X249395Y196845D01*
X252786Y196845D02*
X303041Y196845D01*
X315675Y196845D02*
X335522Y196845D01*
X06030Y197945D02*
X59003Y197945D01*
X67588Y197945D02*
X71264Y197945D01*
X77205Y197945D02*
X89892Y197945D01*
X96067Y197945D02*
X104754Y197945D01*
X113451Y197945D02*
X122152Y197945D01*
X128326Y197945D02*
X144023Y197945D01*
X150755Y197945D02*
X159023Y197945D01*
X165755Y197945D02*
X215055Y197945D01*
X223583Y197945D02*
X231901Y197945D01*
X236267Y197945D02*
X237942Y197945D01*
X245218Y197945D02*
X303041Y197945D01*
X315675Y197945D02*
X335522Y197945D01*
X06030Y199045D02*
X59335Y199045D01*
X67256Y199045D02*
X71264Y199045D01*
X77205Y199045D02*
X90992Y199045D01*
X97167Y199045D02*
X104754Y199045D01*
X113451Y199045D02*
X121052Y199045D01*
X127226Y199045D02*
X142923Y199045D01*
X149655Y199045D02*
X157923Y199045D01*
X164655Y199045D02*
X214279Y199045D01*
X223204Y199045D02*
X231901Y199045D01*
X236395Y199045D02*
X239042Y199045D01*
X246021Y199045D02*
X248969Y199045D01*
X253212Y199045D02*
X303041Y199045D01*
X315675Y199045D02*
X335522Y199045D01*
X06030Y200145D02*
X60051Y200145D01*
X66540Y200145D02*
X71264Y200145D01*
X77205Y200145D02*
X92092Y200145D01*
X98267Y200145D02*
X104754Y200145D01*
X113451Y200145D02*
X119952Y200145D01*
X126126Y200145D02*
X141823Y200145D01*
X148555Y200145D02*
X156823Y200145D01*
X163555Y200145D02*
X213179Y200145D01*
X222416Y200145D02*
X231892Y200145D01*
X237277Y200145D02*
X240142Y200145D01*
X246254Y200145D02*
X247679Y200145D01*
X254503Y200145D02*
X303041Y200145D01*
X315675Y200145D02*
X335522Y200145D01*
X06030Y201245D02*
X61578Y201245D01*
X65013Y201245D02*
X71264Y201245D01*
X77205Y201245D02*
X93192Y201245D01*
X99367Y201245D02*
X104754Y201245D01*
X113451Y201245D02*
X118852Y201245D01*
X125026Y201245D02*
X140723Y201245D01*
X147455Y201245D02*
X155723Y201245D01*
X162455Y201245D02*
X212079Y201245D01*
X220610Y201245D02*
X231618Y201245D01*
X237551Y201245D02*
X240504Y201245D01*
X246065Y201245D02*
X247045Y201245D01*
X255136Y201245D02*
X303041Y201245D01*
X315675Y201245D02*
X335522Y201245D01*
X06030Y202345D02*
X71264Y202345D01*
X77205Y202345D02*
X94292Y202345D01*
X100467Y202345D02*
X117752Y202345D01*
X123926Y202345D02*
X139623Y202345D01*
X146355Y202345D02*
X154623Y202345D01*
X161355Y202345D02*
X210979Y202345D01*
X217154Y202345D02*
X230552Y202345D01*
X237400Y202345D02*
X241230Y202345D01*
X245339Y202345D02*
X246770Y202345D01*
X255411Y202345D02*
X303041Y202345D01*
X315675Y202345D02*
X335522Y202345D01*
X06030Y203445D02*
X61191Y203445D01*
X65400Y203445D02*
X71264Y203445D01*
X77205Y203445D02*
X95392Y203445D01*
X101567Y203445D02*
X116652Y203445D01*
X122826Y203445D02*
X138523Y203445D01*
X145255Y203445D02*
X153523Y203445D01*
X160255Y203445D02*
X209879Y203445D01*
X216054Y203445D02*
X229452Y203445D01*
X236738Y203445D02*
X246784Y203445D01*
X255397Y203445D02*
X303041Y203445D01*
X315675Y203445D02*
X335522Y203445D01*
X06030Y204545D02*
X59891Y204545D01*
X66700Y204545D02*
X71264Y204545D01*
X77205Y204545D02*
X96492Y204545D01*
X121726Y204545D02*
X137423Y204545D01*
X144155Y204545D02*
X152423Y204545D01*
X159155Y204545D02*
X208779Y204545D01*
X214954Y204545D02*
X228352Y204545D01*
X234526Y204545D02*
X247090Y204545D01*
X255091Y204545D02*
X303041Y204545D01*
X315675Y204545D02*
X335522Y204545D01*
X06030Y205645D02*
X59254Y205645D01*
X67337Y205645D02*
X71264Y205645D01*
X77205Y205645D02*
X97592Y205645D01*
X120626Y205645D02*
X136323Y205645D01*
X143055Y205645D02*
X151323Y205645D01*
X158055Y205645D02*
X207679Y205645D01*
X213854Y205645D02*
X227252Y205645D01*
X233426Y205645D02*
X247767Y205645D01*
X254414Y205645D02*
X303041Y205645D01*
X315675Y205645D02*
X335522Y205645D01*
X06030Y206745D02*
X58976Y206745D01*
X67614Y206745D02*
X71264Y206745D01*
X77205Y206745D02*
X98692Y206745D01*
X119526Y206745D02*
X135223Y206745D01*
X141955Y206745D02*
X150223Y206745D01*
X156955Y206745D02*
X206579Y206745D01*
X212754Y206745D02*
X226157Y206745D01*
X232326Y206745D02*
X249176Y206745D01*
X253005Y206745D02*
X335522Y206745D01*
X06030Y207845D02*
X58988Y207845D01*
X67603Y207845D02*
X71264Y207845D01*
X77205Y207845D02*
X99944Y207845D01*
X118275Y207845D02*
X134123Y207845D01*
X140855Y207845D02*
X149123Y207845D01*
X155855Y207845D02*
X205479Y207845D01*
X211654Y207845D02*
X225630Y207845D01*
X231226Y207845D02*
X335522Y207845D01*
X06030Y208945D02*
X59291Y208945D01*
X67300Y208945D02*
X71264Y208945D01*
X77205Y208945D02*
X133023Y208945D01*
X139755Y208945D02*
X148023Y208945D01*
X154755Y208945D02*
X204379Y208945D01*
X210554Y208945D02*
X225601Y208945D01*
X230126Y208945D02*
X249159Y208945D01*
X253023Y208945D02*
X335522Y208945D01*
X06030Y210045D02*
X59964Y210045D01*
X66627Y210045D02*
X71264Y210045D01*
X77205Y210045D02*
X131923Y210045D01*
X138655Y210045D02*
X146923Y210045D01*
X153655Y210045D02*
X203279Y210045D01*
X209454Y210045D02*
X225601Y210045D01*
X229967Y210045D02*
X247760Y210045D01*
X254421Y210045D02*
X335522Y210045D01*
X06030Y211145D02*
X61362Y211145D01*
X65229Y211145D02*
X71264Y211145D01*
X77205Y211145D02*
X130823Y211145D01*
X137555Y211145D02*
X145823Y211145D01*
X152555Y211145D02*
X202179Y211145D01*
X208354Y211145D02*
X225601Y211145D01*
X229967Y211145D02*
X247086Y211145D01*
X255095Y211145D02*
X335522Y211145D01*
X06030Y212245D02*
X71264Y212245D01*
X77205Y212245D02*
X129723Y212245D01*
X136455Y212245D02*
X144723Y212245D01*
X151455Y212245D02*
X201079Y212245D01*
X207254Y212245D02*
X225047Y212245D01*
X230521Y212245D02*
X246783Y212245D01*
X255398Y212245D02*
X335522Y212245D01*
X06030Y213345D02*
X61382Y213345D01*
X65208Y213345D02*
X71264Y213345D01*
X77205Y213345D02*
X128623Y213345D01*
X135355Y213345D02*
X143623Y213345D01*
X150355Y213345D02*
X199979Y213345D01*
X206154Y213345D02*
X224814Y213345D01*
X230754Y213345D02*
X246771Y213345D01*
X255410Y213345D02*
X335522Y213345D01*
X06030Y214445D02*
X59973Y214445D01*
X66618Y214445D02*
X71264Y214445D01*
X77205Y214445D02*
X127523Y214445D01*
X134255Y214445D02*
X142523Y214445D01*
X149255Y214445D02*
X198879Y214445D01*
X205054Y214445D02*
X225004Y214445D01*
X230565Y214445D02*
X247049Y214445D01*
X255132Y214445D02*
X335522Y214445D01*
X06030Y215545D02*
X35325Y215545D01*
X47959Y215545D02*
X59295Y215545D01*
X67295Y215545D02*
X71264Y215545D01*
X77205Y215545D02*
X126423Y215545D01*
X133155Y215545D02*
X141423Y215545D01*
X148155Y215545D02*
X197779Y215545D01*
X203954Y215545D02*
X225730Y215545D01*
X229839Y215545D02*
X247685Y215545D01*
X254496Y215545D02*
X335522Y215545D01*
X06030Y216645D02*
X35325Y216645D01*
X47959Y216645D02*
X58989Y216645D01*
X67601Y216645D02*
X71264Y216645D01*
X77205Y216645D02*
X125323Y216645D01*
X132055Y216645D02*
X140323Y216645D01*
X147055Y216645D02*
X196679Y216645D01*
X202854Y216645D02*
X248984Y216645D01*
X253197Y216645D02*
X335522Y216645D01*
X06030Y217745D02*
X35325Y217745D01*
X47959Y217745D02*
X58975Y217745D01*
X67615Y217745D02*
X71264Y217745D01*
X77205Y217745D02*
X124223Y217745D01*
X130955Y217745D02*
X139223Y217745D01*
X145955Y217745D02*
X195579Y217745D01*
X201754Y217745D02*
X335522Y217745D01*
X06030Y218845D02*
X35325Y218845D01*
X47959Y218845D02*
X59250Y218845D01*
X67341Y218845D02*
X71264Y218845D01*
X77205Y218845D02*
X123123Y218845D01*
X129855Y218845D02*
X138123Y218845D01*
X144855Y218845D02*
X194479Y218845D01*
X200654Y218845D02*
X249375Y218845D01*
X252806Y218845D02*
X335522Y218845D01*
X06030Y219945D02*
X35325Y219945D01*
X47959Y219945D02*
X59883Y219945D01*
X66708Y219945D02*
X71264Y219945D01*
X77205Y219945D02*
X122023Y219945D01*
X128755Y219945D02*
X137023Y219945D01*
X143755Y219945D02*
X193379Y219945D01*
X199554Y219945D02*
X247846Y219945D01*
X254335Y219945D02*
X335522Y219945D01*
X06030Y221045D02*
X35325Y221045D01*
X47959Y221045D02*
X61172Y221045D01*
X65418Y221045D02*
X71264Y221045D01*
X77205Y221045D02*
X120923Y221045D01*
X127655Y221045D02*
X135923Y221045D01*
X142655Y221045D02*
X192279Y221045D01*
X198454Y221045D02*
X247130Y221045D01*
X255051Y221045D02*
X335522Y221045D01*
X06030Y222145D02*
X35325Y222145D01*
X47959Y222145D02*
X71264Y222145D01*
X77205Y222145D02*
X119823Y222145D01*
X126555Y222145D02*
X134823Y222145D01*
X141555Y222145D02*
X191179Y222145D01*
X197354Y222145D02*
X246798Y222145D01*
X255383Y222145D02*
X335522Y222145D01*
X06030Y223245D02*
X35325Y223245D01*
X47959Y223245D02*
X71264Y223245D01*
X77205Y223245D02*
X118723Y223245D01*
X125455Y223245D02*
X133723Y223245D01*
X140455Y223245D02*
X190079Y223245D01*
X196254Y223245D02*
X246761Y223245D01*
X255420Y223245D02*
X335522Y223245D01*
X06030Y224345D02*
X35325Y224345D01*
X47959Y224345D02*
X71264Y224345D01*
X77205Y224345D02*
X117623Y224345D01*
X124355Y224345D02*
X132623Y224345D01*
X139355Y224345D02*
X188979Y224345D01*
X195154Y224345D02*
X247011Y224345D01*
X255170Y224345D02*
X335522Y224345D01*
X06030Y225445D02*
X35325Y225445D01*
X47959Y225445D02*
X71264Y225445D01*
X77205Y225445D02*
X116523Y225445D01*
X123255Y225445D02*
X131523Y225445D01*
X138255Y225445D02*
X187879Y225445D01*
X194054Y225445D02*
X247608Y225445D01*
X254573Y225445D02*
X335522Y225445D01*
X06030Y226545D02*
X35325Y226545D01*
X47959Y226545D02*
X71264Y226545D01*
X77205Y226545D02*
X115423Y226545D01*
X122155Y226545D02*
X130423Y226545D01*
X137155Y226545D02*
X186779Y226545D01*
X192954Y226545D02*
X248813Y226545D01*
X253368Y226545D02*
X335522Y226545D01*
X06030Y227645D02*
X35325Y227645D01*
X47959Y227645D02*
X71264Y227645D01*
X77205Y227645D02*
X114323Y227645D01*
X121055Y227645D02*
X129323Y227645D01*
X136055Y227645D02*
X185679Y227645D01*
X191854Y227645D02*
X335522Y227645D01*
X06030Y228745D02*
X71264Y228745D01*
X77205Y228745D02*
X113223Y228745D01*
X119955Y228745D02*
X128223Y228745D01*
X134955Y228745D02*
X140051Y228745D01*
X143918Y228745D02*
X184579Y228745D01*
X190754Y228745D02*
X249630Y228745D01*
X252551Y228745D02*
X335522Y228745D01*
X06030Y229845D02*
X39118Y229845D01*
X44165Y229845D02*
X71264Y229845D01*
X77205Y229845D02*
X112123Y229845D01*
X118855Y229845D02*
X127123Y229845D01*
X133855Y229845D02*
X139248Y229845D01*
X189654Y229845D02*
X247939Y229845D01*
X254242Y229845D02*
X335522Y229845D01*
X06030Y230945D02*
X37411Y230945D01*
X45872Y230945D02*
X71264Y230945D01*
X77205Y230945D02*
X111023Y230945D01*
X117755Y230945D02*
X126023Y230945D01*
X132755Y230945D02*
X139014Y230945D01*
X188554Y230945D02*
X247177Y230945D01*
X255004Y230945D02*
X335522Y230945D01*
X06030Y232045D02*
X36445Y232045D01*
X46839Y232045D02*
X71264Y232045D01*
X77205Y232045D02*
X109923Y232045D01*
X116655Y232045D02*
X124923Y232045D01*
X131655Y232045D02*
X139204Y232045D01*
X187454Y232045D02*
X246816Y232045D01*
X255366Y232045D02*
X307246Y232045D01*
X311471Y232045D02*
X335522Y232045D01*
X06030Y233145D02*
X35837Y233145D01*
X47447Y233145D02*
X71264Y233145D01*
X77205Y233145D02*
X108823Y233145D01*
X115555Y233145D02*
X123823Y233145D01*
X130555Y233145D02*
X139930Y233145D01*
X185975Y233145D02*
X246753Y233145D01*
X255428Y233145D02*
X305315Y233145D01*
X313402Y233145D02*
X335522Y233145D01*
X06030Y234245D02*
X35480Y234245D01*
X47804Y234245D02*
X71264Y234245D01*
X77205Y234245D02*
X107723Y234245D01*
X114455Y234245D02*
X122723Y234245D01*
X129455Y234245D02*
X246975Y234245D01*
X255206Y234245D02*
X304277Y234245D01*
X314439Y234245D02*
X335522Y234245D01*
X06030Y235345D02*
X35331Y235345D01*
X47952Y235345D02*
X71264Y235345D01*
X77205Y235345D02*
X106623Y235345D01*
X113355Y235345D02*
X121623Y235345D01*
X128355Y235345D02*
X247536Y235345D01*
X254645Y235345D02*
X303626Y235345D01*
X315091Y235345D02*
X335522Y235345D01*
X06030Y236445D02*
X35377Y236445D01*
X47907Y236445D02*
X71264Y236445D01*
X77205Y236445D02*
X105523Y236445D01*
X112255Y236445D02*
X120523Y236445D01*
X127255Y236445D02*
X248658Y236445D01*
X253523Y236445D02*
X303235Y236445D01*
X315481Y236445D02*
X335522Y236445D01*
X06030Y237545D02*
X35620Y237545D01*
X47663Y237545D02*
X71264Y237545D01*
X77205Y237545D02*
X104423Y237545D01*
X111155Y237545D02*
X119423Y237545D01*
X126155Y237545D02*
X303058Y237545D01*
X315659Y237545D02*
X335522Y237545D01*
X06030Y238645D02*
X36088Y238645D01*
X47196Y238645D02*
X71264Y238645D01*
X77205Y238645D02*
X103323Y238645D01*
X110055Y238645D02*
X118323Y238645D01*
X125055Y238645D02*
X249948Y238645D01*
X252233Y238645D02*
X303075Y238645D01*
X315642Y238645D02*
X335522Y238645D01*
X06030Y239745D02*
X36844Y239745D01*
X46440Y239745D02*
X71264Y239745D01*
X77205Y239745D02*
X102223Y239745D01*
X108955Y239745D02*
X117223Y239745D01*
X123955Y239745D02*
X248037Y239745D01*
X254144Y239745D02*
X303288Y239745D01*
X315429Y239745D02*
X335522Y239745D01*
X06030Y240845D02*
X38068Y240845D01*
X45215Y240845D02*
X71264Y240845D01*
X77205Y240845D02*
X101123Y240845D01*
X107855Y240845D02*
X116123Y240845D01*
X122855Y240845D02*
X247227Y240845D01*
X254954Y240845D02*
X303719Y240845D01*
X314997Y240845D02*
X335522Y240845D01*
X06030Y241945D02*
X41326Y241945D01*
X41957Y241945D02*
X71264Y241945D01*
X77205Y241945D02*
X100023Y241945D01*
X106755Y241945D02*
X115023Y241945D01*
X121755Y241945D02*
X246835Y241945D01*
X255346Y241945D02*
X304426Y241945D01*
X314290Y241945D02*
X335522Y241945D01*
X06030Y243045D02*
X71264Y243045D01*
X77205Y243045D02*
X98923Y243045D01*
X105655Y243045D02*
X113923Y243045D01*
X120655Y243045D02*
X246747Y243045D01*
X255434Y243045D02*
X305559Y243045D01*
X313157Y243045D02*
X335522Y243045D01*
X06030Y244145D02*
X38160Y244145D01*
X45124Y244145D02*
X71264Y244145D01*
X77205Y244145D02*
X97823Y244145D01*
X104555Y244145D02*
X112823Y244145D01*
X119555Y244145D02*
X246942Y244145D01*
X255239Y244145D02*
X307902Y244145D01*
X310814Y244145D02*
X335522Y244145D01*
X06030Y245245D02*
X36897Y245245D01*
X46386Y245245D02*
X71264Y245245D01*
X77205Y245245D02*
X96723Y245245D01*
X103455Y245245D02*
X111723Y245245D01*
X118455Y245245D02*
X247467Y245245D01*
X254714Y245245D02*
X335522Y245245D01*
X06030Y246345D02*
X36121Y246345D01*
X47162Y246345D02*
X71264Y246345D01*
X77205Y246345D02*
X95623Y246345D01*
X102355Y246345D02*
X110623Y246345D01*
X117355Y246345D02*
X248516Y246345D01*
X253665Y246345D02*
X335522Y246345D01*
X06030Y247445D02*
X35640Y247445D01*
X47643Y247445D02*
X71264Y247445D01*
X77205Y247445D02*
X94982Y247445D01*
X101255Y247445D02*
X109523Y247445D01*
X116255Y247445D02*
X335522Y247445D01*
X06030Y248545D02*
X35385Y248545D01*
X47898Y248545D02*
X71264Y248545D01*
X77205Y248545D02*
X94904Y248545D01*
X100155Y248545D02*
X108423Y248545D01*
X115155Y248545D02*
X250415Y248545D01*
X251766Y248545D02*
X335522Y248545D01*
X06030Y249645D02*
X35329Y249645D01*
X47954Y249645D02*
X71264Y249645D01*
X77205Y249645D02*
X94904Y249645D01*
X99664Y249645D02*
X107323Y249645D01*
X114055Y249645D02*
X248142Y249645D01*
X254040Y249645D02*
X335522Y249645D01*
X06030Y250745D02*
X35466Y250745D01*
X47817Y250745D02*
X71264Y250745D01*
X77205Y250745D02*
X94904Y250745D01*
X99664Y250745D02*
X106223Y250745D01*
X112955Y250745D02*
X247280Y250745D01*
X254901Y250745D02*
X335522Y250745D01*
X06030Y251845D02*
X35811Y251845D01*
X47473Y251845D02*
X71264Y251845D01*
X77205Y251845D02*
X94904Y251845D01*
X99664Y251845D02*
X105124Y251845D01*
X111855Y251845D02*
X246858Y251845D01*
X255323Y251845D02*
X335522Y251845D01*
X06030Y252945D02*
X36403Y252945D01*
X46881Y252945D02*
X71264Y252945D01*
X77205Y252945D02*
X94904Y252945D01*
X99664Y252945D02*
X104523Y252945D01*
X110755Y252945D02*
X246743Y252945D01*
X255438Y252945D02*
X335522Y252945D01*
X06030Y254045D02*
X37344Y254045D01*
X45940Y254045D02*
X71264Y254045D01*
X77205Y254045D02*
X94904Y254045D01*
X99664Y254045D02*
X104459Y254045D01*
X109655Y254045D02*
X246912Y254045D01*
X255269Y254045D02*
X335522Y254045D01*
X06030Y255145D02*
X38982Y255145D01*
X44302Y255145D02*
X71264Y255145D01*
X77205Y255145D02*
X94904Y255145D01*
X99664Y255145D02*
X104459Y255145D01*
X109219Y255145D02*
X247403Y255145D01*
X254778Y255145D02*
X335522Y255145D01*
X06030Y256245D02*
X71264Y256245D01*
X77205Y256245D02*
X94904Y256245D01*
X99664Y256245D02*
X104459Y256245D01*
X109219Y256245D02*
X248385Y256245D01*
X253796Y256245D02*
X335522Y256245D01*
X06030Y257345D02*
X71264Y257345D01*
X77205Y257345D02*
X94904Y257345D01*
X99664Y257345D02*
X104459Y257345D01*
X109219Y257345D02*
X335522Y257345D01*
X06030Y258445D02*
X71264Y258445D01*
X77205Y258445D02*
X94904Y258445D01*
X99664Y258445D02*
X104459Y258445D01*
X109219Y258445D02*
X125571Y258445D01*
X128107Y258445D02*
X135508Y258445D01*
X138169Y258445D02*
X145508Y258445D01*
X148169Y258445D02*
X155508Y258445D01*
X158169Y258445D02*
X335522Y258445D01*
X06030Y259545D02*
X71264Y259545D01*
X77205Y259545D02*
X93749Y259545D01*
X99929Y259545D02*
X103749Y259545D01*
X109929Y259545D02*
X123749Y259545D01*
X129929Y259545D02*
X133729Y259545D01*
X139948Y259545D02*
X143729Y259545D01*
X149948Y259545D02*
X153729Y259545D01*
X159948Y259545D02*
X246742Y259545D01*
X255439Y259545D02*
X303041Y259545D01*
X315675Y259545D02*
X335522Y259545D01*
X06030Y260645D02*
X71264Y260645D01*
X77205Y260645D02*
X92957Y260645D01*
X100720Y260645D02*
X102957Y260645D01*
X110720Y260645D02*
X122957Y260645D01*
X130721Y260645D02*
X132947Y260645D01*
X140730Y260645D02*
X142947Y260645D01*
X150730Y260645D02*
X152947Y260645D01*
X160730Y260645D02*
X246742Y260645D01*
X255439Y260645D02*
X303041Y260645D01*
X315675Y260645D02*
X335522Y260645D01*
X06030Y261745D02*
X71264Y261745D01*
X77205Y261745D02*
X92576Y261745D01*
X101101Y261745D02*
X102576Y261745D01*
X111101Y261745D02*
X122576Y261745D01*
X131101Y261745D02*
X132572Y261745D01*
X141105Y261745D02*
X142572Y261745D01*
X151105Y261745D02*
X152572Y261745D01*
X161105Y261745D02*
X246742Y261745D01*
X255439Y261745D02*
X303041Y261745D01*
X315675Y261745D02*
X335522Y261745D01*
X06030Y262845D02*
X71264Y262845D01*
X77205Y262845D02*
X92497Y262845D01*
X101180Y262845D02*
X102497Y262845D01*
X111180Y262845D02*
X122497Y262845D01*
X131180Y262845D02*
X132498Y262845D01*
X141179Y262845D02*
X142498Y262845D01*
X151179Y262845D02*
X152498Y262845D01*
X161179Y262845D02*
X246742Y262845D01*
X255439Y262845D02*
X303041Y262845D01*
X315675Y262845D02*
X335522Y262845D01*
X06030Y263945D02*
X71264Y263945D01*
X77205Y263945D02*
X92702Y263945D01*
X100975Y263945D02*
X102702Y263945D01*
X110975Y263945D02*
X122702Y263945D01*
X130975Y263945D02*
X132708Y263945D01*
X140969Y263945D02*
X142708Y263945D01*
X150969Y263945D02*
X152708Y263945D01*
X160969Y263945D02*
X246742Y263945D01*
X255439Y263945D02*
X303041Y263945D01*
X315675Y263945D02*
X335522Y263945D01*
X06030Y265045D02*
X71264Y265045D01*
X77205Y265045D02*
X93240Y265045D01*
X100437Y265045D02*
X103240Y265045D01*
X110437Y265045D02*
X123240Y265045D01*
X130438Y265045D02*
X133253Y265045D01*
X140424Y265045D02*
X143253Y265045D01*
X150424Y265045D02*
X153253Y265045D01*
X160424Y265045D02*
X246742Y265045D01*
X255439Y265045D02*
X303041Y265045D01*
X315675Y265045D02*
X335522Y265045D01*
X06030Y266145D02*
X71264Y266145D01*
X77205Y266145D02*
X94314Y266145D01*
X99363Y266145D02*
X104314Y266145D01*
X109363Y266145D02*
X124314Y266145D01*
X129363Y266145D02*
X134342Y266145D01*
X139335Y266145D02*
X144342Y266145D01*
X149335Y266145D02*
X154342Y266145D01*
X159335Y266145D02*
X246742Y266145D01*
X255439Y266145D02*
X303041Y266145D01*
X315675Y266145D02*
X335522Y266145D01*
X06030Y267245D02*
X71264Y267245D01*
X77205Y267245D02*
X124656Y267245D01*
X129022Y267245D02*
X303041Y267245D01*
X315675Y267245D02*
X335522Y267245D01*
X06030Y268345D02*
X71264Y268345D01*
X77205Y268345D02*
X124656Y268345D01*
X129022Y268345D02*
X303041Y268345D01*
X315675Y268345D02*
X335522Y268345D01*
X06030Y269445D02*
X71264Y269445D01*
X77205Y269445D02*
X124656Y269445D01*
X129022Y269445D02*
X303041Y269445D01*
X315675Y269445D02*
X335522Y269445D01*
X06030Y270545D02*
X71264Y270545D01*
X77205Y270545D02*
X124656Y270545D01*
X129022Y270545D02*
X303041Y270545D01*
X315675Y270545D02*
X335522Y270545D01*
X06030Y271645D02*
X71264Y271645D01*
X77205Y271645D02*
X124656Y271645D01*
X129022Y271645D02*
X303041Y271645D01*
X315675Y271645D02*
X335522Y271645D01*
X06030Y272745D02*
X71264Y272745D01*
X77205Y272745D02*
X124656Y272745D01*
X129022Y272745D02*
X335522Y272745D01*
X06030Y273845D02*
X71264Y273845D01*
X77205Y273845D02*
X124656Y273845D01*
X129022Y273845D02*
X335522Y273845D01*
X06030Y274945D02*
X71264Y274945D01*
X78180Y274945D02*
X124656Y274945D01*
X129022Y274945D02*
X335522Y274945D01*
X06030Y276045D02*
X71387Y276045D01*
X79280Y276045D02*
X124656Y276045D01*
X129022Y276045D02*
X335522Y276045D01*
X06030Y277145D02*
X71989Y277145D01*
X80380Y277145D02*
X124656Y277145D01*
X129022Y277145D02*
X335522Y277145D01*
X06030Y278245D02*
X73079Y278245D01*
X81480Y278245D02*
X124656Y278245D01*
X129022Y278245D02*
X335522Y278245D01*
X06030Y279345D02*
X74179Y279345D01*
X82580Y279345D02*
X124656Y279345D01*
X129467Y279345D02*
X335522Y279345D01*
X06030Y280445D02*
X75279Y280445D01*
X83680Y280445D02*
X124752Y280445D01*
X130567Y280445D02*
X335522Y280445D01*
X06030Y281545D02*
X76379Y281545D01*
X84780Y281545D02*
X125492Y281545D01*
X131667Y281545D02*
X335522Y281545D01*
X06030Y282645D02*
X77479Y282645D01*
X85880Y282645D02*
X126592Y282645D01*
X132767Y282645D02*
X335522Y282645D01*
X06030Y283745D02*
X78579Y283745D01*
X86980Y283745D02*
X127692Y283745D01*
X133867Y283745D02*
X335522Y283745D01*
X06030Y284845D02*
X79679Y284845D01*
X88080Y284845D02*
X128792Y284845D01*
X134967Y284845D02*
X335522Y284845D01*
X06030Y285945D02*
X80779Y285945D01*
X89180Y285945D02*
X129892Y285945D01*
X136067Y285945D02*
X335522Y285945D01*
X06030Y287045D02*
X81879Y287045D01*
X90280Y287045D02*
X130992Y287045D01*
X137167Y287045D02*
X335522Y287045D01*
X06030Y288145D02*
X82979Y288145D01*
X91380Y288145D02*
X132092Y288145D01*
X138267Y288145D02*
X335522Y288145D01*
X06030Y289245D02*
X84079Y289245D01*
X92480Y289245D02*
X133192Y289245D01*
X139367Y289245D02*
X335522Y289245D01*
X06030Y290345D02*
X85179Y290345D01*
X93580Y290345D02*
X134292Y290345D01*
X140467Y290345D02*
X335522Y290345D01*
X06030Y291445D02*
X86279Y291445D01*
X94680Y291445D02*
X135392Y291445D01*
X141567Y291445D02*
X335522Y291445D01*
X06030Y292545D02*
X87379Y292545D01*
X95780Y292545D02*
X136492Y292545D01*
X142667Y292545D02*
X335522Y292545D01*
X06030Y293645D02*
X88479Y293645D01*
X96880Y293645D02*
X137592Y293645D01*
X143767Y293645D02*
X335522Y293645D01*
X06030Y294745D02*
X89579Y294745D01*
X97980Y294745D02*
X138692Y294745D01*
X144867Y294745D02*
X335522Y294745D01*
X06030Y295845D02*
X90679Y295845D01*
X99080Y295845D02*
X139792Y295845D01*
X145967Y295845D02*
X335522Y295845D01*
X06030Y296945D02*
X91779Y296945D01*
X100180Y296945D02*
X140892Y296945D01*
X147067Y296945D02*
X335522Y296945D01*
X06030Y298045D02*
X92879Y298045D01*
X101280Y298045D02*
X141992Y298045D01*
X148167Y298045D02*
X335522Y298045D01*
X06030Y299145D02*
X93979Y299145D01*
X102380Y299145D02*
X143092Y299145D01*
X149267Y299145D02*
X335522Y299145D01*
X06030Y300245D02*
X95079Y300245D01*
X103480Y300245D02*
X144192Y300245D01*
X150367Y300245D02*
X335522Y300245D01*
X06030Y301345D02*
X96179Y301345D01*
X104580Y301345D02*
X145292Y301345D01*
X179533Y301345D02*
X335522Y301345D01*
X06030Y302445D02*
X97279Y302445D01*
X105680Y302445D02*
X146392Y302445D01*
X180633Y302445D02*
X335522Y302445D01*
X06030Y303545D02*
X98379Y303545D01*
X106780Y303545D02*
X147492Y303545D01*
X181733Y303545D02*
X335522Y303545D01*
X06030Y304645D02*
X99479Y304645D01*
X107880Y304645D02*
X148799Y304645D01*
X182833Y304645D02*
X335522Y304645D01*
X06030Y305745D02*
X100579Y305745D01*
X108980Y305745D02*
X177758Y305745D01*
X183933Y305745D02*
X335522Y305745D01*
X06030Y306845D02*
X101679Y306845D01*
X110080Y306845D02*
X178858Y306845D01*
X185033Y306845D02*
X335522Y306845D01*
X06030Y307945D02*
X102779Y307945D01*
X111180Y307945D02*
X179958Y307945D01*
X186133Y307945D02*
X335522Y307945D01*
X06030Y309045D02*
X103879Y309045D01*
X112280Y309045D02*
X181058Y309045D01*
X187233Y309045D02*
X335522Y309045D01*
X06030Y310145D02*
X104979Y310145D01*
X113380Y310145D02*
X182158Y310145D01*
X191161Y310145D02*
X335522Y310145D01*
X06030Y311245D02*
X106079Y311245D01*
X114480Y311245D02*
X183258Y311245D01*
X192453Y311245D02*
X335522Y311245D01*
X06030Y312345D02*
X107179Y312345D01*
X115580Y312345D02*
X184358Y312345D01*
X193087Y312345D02*
X335522Y312345D01*
X06030Y313445D02*
X108279Y313445D01*
X116680Y313445D02*
X184724Y313445D01*
X193363Y313445D02*
X335522Y313445D01*
X06030Y314545D02*
X109379Y314545D01*
X117780Y314545D02*
X184737Y314545D01*
X193350Y314545D02*
X335522Y314545D01*
X06030Y315645D02*
X110479Y315645D01*
X118880Y315645D02*
X185042Y315645D01*
X193045Y315645D02*
X335522Y315645D01*
X06030Y316745D02*
X111579Y316745D01*
X119980Y316745D02*
X185718Y316745D01*
X192369Y316745D02*
X335522Y316745D01*
X06030Y317845D02*
X112679Y317845D01*
X121080Y317845D02*
X187124Y317845D01*
X190962Y317845D02*
X335522Y317845D01*
X06030Y318945D02*
X113779Y318945D01*
X122180Y318945D02*
X335522Y318945D01*
X06030Y320045D02*
X114879Y320045D01*
X123280Y320045D02*
X187136Y320045D01*
X190990Y320045D02*
X335522Y320045D01*
X06030Y321145D02*
X115979Y321145D01*
X124380Y321145D02*
X185734Y321145D01*
X192392Y321145D02*
X335522Y321145D01*
X06030Y322245D02*
X117079Y322245D01*
X125480Y322245D02*
X159382Y322245D01*
X163665Y322245D02*
X185060Y322245D01*
X193066Y322245D02*
X335522Y322245D01*
X06030Y323345D02*
X118179Y323345D01*
X164944Y323345D02*
X184756Y323345D01*
X193370Y323345D02*
X335522Y323345D01*
X06030Y324445D02*
X119279Y324445D01*
X165573Y324445D02*
X184744Y324445D01*
X193382Y324445D02*
X335522Y324445D01*
X06030Y325545D02*
X120379Y325545D01*
X165845Y325545D02*
X185020Y325545D01*
X193106Y325545D02*
X335522Y325545D01*
X06030Y326645D02*
X121479Y326645D01*
X165828Y326645D02*
X185656Y326645D01*
X192470Y326645D02*
X335522Y326645D01*
X06030Y327745D02*
X122579Y327745D01*
X166880Y327745D02*
X186953Y327745D01*
X191173Y327745D02*
X335522Y327745D01*
X06030Y328845D02*
X124117Y328845D01*
X167980Y328845D02*
X335522Y328845D01*
X06030Y329945D02*
X159632Y329945D01*
X169080Y329945D02*
X187353Y329945D01*
X190773Y329945D02*
X335522Y329945D01*
X06030Y331045D02*
X161779Y331045D01*
X170180Y331045D02*
X185821Y331045D01*
X192305Y331045D02*
X335522Y331045D01*
X06030Y332145D02*
X159570Y332145D01*
X171280Y332145D02*
X185104Y332145D01*
X193022Y332145D02*
X335522Y332145D01*
X06030Y333245D02*
X158184Y333245D01*
X172380Y333245D02*
X184771Y333245D01*
X193355Y333245D02*
X335522Y333245D01*
X06030Y334345D02*
X157515Y334345D01*
X173480Y334345D02*
X184733Y334345D01*
X193393Y334345D02*
X335522Y334345D01*
X06030Y335445D02*
X157215Y335445D01*
X165833Y335445D02*
X166179Y335445D01*
X174580Y335445D02*
X184982Y335445D01*
X193144Y335445D02*
X335522Y335445D01*
X06030Y336545D02*
X157206Y336545D01*
X165841Y336545D02*
X167279Y336545D01*
X175680Y336545D02*
X185579Y336545D01*
X192547Y336545D02*
X335522Y336545D01*
X06030Y337645D02*
X157486Y337645D01*
X165561Y337645D02*
X168379Y337645D01*
X176780Y337645D02*
X186782Y337645D01*
X191344Y337645D02*
X335522Y337645D01*
X06030Y338745D02*
X158127Y338745D01*
X164920Y338745D02*
X169479Y338745D01*
X177880Y338745D02*
X335522Y338745D01*
X06030Y339845D02*
X159438Y339845D01*
X163609Y339845D02*
X170579Y339845D01*
X178980Y339845D02*
X187609Y339845D01*
X190517Y339845D02*
X335522Y339845D01*
X06030Y340945D02*
X171679Y340945D01*
X180080Y340945D02*
X185913Y340945D01*
X192213Y340945D02*
X335522Y340945D01*
X06030Y342045D02*
X159783Y342045D01*
X163265Y342045D02*
X172779Y342045D01*
X181180Y342045D02*
X185151Y342045D01*
X192975Y342045D02*
X335522Y342045D01*
X06030Y343145D02*
X158270Y343145D01*
X164777Y343145D02*
X173879Y343145D01*
X182280Y343145D02*
X184789Y343145D01*
X193338Y343145D02*
X335522Y343145D01*
X06030Y344245D02*
X157558Y344245D01*
X165489Y344245D02*
X174979Y344245D01*
X183380Y344245D02*
X184725Y344245D01*
X193401Y344245D02*
X335522Y344245D01*
X06030Y345345D02*
X157229Y345345D01*
X165818Y345345D02*
X176079Y345345D01*
X184480Y345345D02*
X184947Y345345D01*
X193179Y345345D02*
X335522Y345345D01*
X06030Y346445D02*
X157195Y346445D01*
X165852Y346445D02*
X177179Y346445D01*
X192620Y346445D02*
X335522Y346445D01*
X06030Y347545D02*
X157448Y347545D01*
X165599Y347545D02*
X178279Y347545D01*
X191499Y347545D02*
X335522Y347545D01*
X06030Y348645D02*
X158050Y348645D01*
X164998Y348645D02*
X179379Y348645D01*
X187780Y348645D02*
X335522Y348645D01*
X06030Y349745D02*
X159264Y349745D01*
X163783Y349745D02*
X180479Y349745D01*
X190196Y349745D02*
X335522Y349745D01*
X06030Y350845D02*
X181579Y350845D01*
X192114Y350845D02*
X335522Y350845D01*
X06030Y351945D02*
X160032Y351945D01*
X163015Y351945D02*
X182679Y351945D01*
X192925Y351945D02*
X335522Y351945D01*
X06030Y353045D02*
X158361Y353045D01*
X164686Y353045D02*
X183779Y353045D01*
X193318Y353045D02*
X335522Y353045D01*
X06030Y354145D02*
X157605Y354145D01*
X165442Y354145D02*
X184719Y354145D01*
X193407Y354145D02*
X335522Y354145D01*
X06030Y355245D02*
X157247Y355245D01*
X165801Y355245D02*
X184914Y355245D01*
X193212Y355245D02*
X335522Y355245D01*
X06030Y356345D02*
X157187Y356345D01*
X165861Y356345D02*
X185438Y356345D01*
X192688Y356345D02*
X335522Y356345D01*
X06030Y357445D02*
X157412Y357445D01*
X165635Y357445D02*
X186485Y357445D01*
X191641Y357445D02*
X335522Y357445D01*
X06030Y358545D02*
X157977Y358545D01*
X165071Y358545D02*
X335522Y358545D01*
X06030Y359645D02*
X159107Y359645D01*
X163940Y359645D02*
X335522Y359645D01*
X06030Y360745D02*
X335522Y360745D01*
X06030Y361845D02*
X157175Y361845D01*
X165872Y361845D02*
X335522Y361845D01*
X06030Y362945D02*
X157175Y362945D01*
X165872Y362945D02*
X335522Y362945D01*
X06030Y364045D02*
X157175Y364045D01*
X165872Y364045D02*
X335522Y364045D01*
X06030Y365145D02*
X157175Y365145D01*
X165872Y365145D02*
X335522Y365145D01*
X06030Y366245D02*
X157175Y366245D01*
X165872Y366245D02*
X335522Y366245D01*
X06030Y367345D02*
X157175Y367345D01*
X165872Y367345D02*
X335522Y367345D01*
X06030Y368445D02*
X157175Y368445D01*
X165872Y368445D02*
X335522Y368445D01*
X06030Y369545D02*
X157175Y369545D01*
X165872Y369545D02*
X335522Y369545D01*
X06030Y370645D02*
X335522Y370645D01*
X06030Y371745D02*
X335522Y371745D01*
X06030Y372845D02*
X335522Y372845D01*
X06030Y373945D02*
X335522Y373945D01*
X06030Y375045D02*
X335522Y375045D01*
X06030Y376145D02*
X335522Y376145D01*
X06030Y377245D02*
X335522Y377245D01*
X06030Y378345D02*
X335522Y378345D01*
X06030Y379445D02*
X335522Y379445D01*
X06030Y380545D02*
X335522Y380545D01*
X06030Y381645D02*
X335522Y381645D01*
X06030Y382745D02*
X335522Y382745D01*
X06030Y383845D02*
X335522Y383845D01*
X06030Y384945D02*
X335522Y384945D01*
X06030Y386045D02*
X335522Y386045D01*
X06030Y387145D02*
X335522Y387145D01*
X06030Y388245D02*
X335522Y388245D01*
X06030Y389345D02*
X335522Y389345D01*
X06030Y390445D02*
X335522Y390445D01*
X06030Y391545D02*
X335522Y391545D01*
X06030Y392645D02*
X335522Y392645D01*
X06030Y393745D02*
X335522Y393745D01*
X06030Y394845D02*
X335522Y394845D01*
X06030Y395945D02*
X335522Y395945D01*
X06030Y397045D02*
X335522Y397045D01*
D16*
X63295Y227250D03*
D17*
X63295Y217250D03*
X63295Y207250D03*
X63295Y197250D03*
X63295Y187250D03*
X63276Y177250D03*
X63276Y167250D03*
X63276Y157250D03*
D18*
X41642Y155321D03*
D19*
X41642Y169101D03*
X41642Y182880D03*
X41642Y196660D03*
D16*
X161524Y366030D03*
D17*
X161524Y356030D03*
X161524Y346030D03*
X161524Y336030D03*
X161524Y326030D03*
X161504Y316030D03*
D16*
X109102Y197093D03*
D17*
X109102Y187093D03*
X109102Y177093D03*
X109102Y167093D03*
X109102Y157093D03*
X109083Y147093D03*
X109083Y137093D03*
X109083Y127093D03*
X109083Y117093D03*
X109083Y107093D03*
X109083Y97093D03*
X109083Y87093D03*
X109083Y77093D03*
X109083Y67093D03*
X109083Y57093D03*
X219319Y57093D03*
X219319Y67093D03*
X219319Y77093D03*
X219319Y87093D03*
X219319Y97093D03*
X219319Y107093D03*
X219319Y117093D03*
X219319Y127093D03*
X219319Y137093D03*
X219319Y147093D03*
X219319Y157093D03*
X219319Y167093D03*
X219319Y177093D03*
X219319Y187093D03*
X219319Y197093D03*
D16*
X86839Y262605D03*
D17*
X96839Y262605D03*
X106839Y262605D03*
X116839Y262605D03*
X126839Y262605D03*
X136839Y262585D03*
X146839Y262585D03*
X156839Y262585D03*
D16*
X189063Y363943D03*
D17*
X189063Y353943D03*
X189063Y343943D03*
X189063Y333943D03*
X189063Y323943D03*
X189043Y313943D03*
D16*
X316406Y59317D03*
D17*
X306406Y59317D03*
X296406Y59317D03*
X286406Y59317D03*
X276406Y59317D03*
X266406Y59337D03*
X256406Y59337D03*
X246406Y59337D03*
D18*
X41642Y221857D03*
D19*
X41642Y235636D03*
X41642Y249416D03*
X41642Y263195D03*
D16*
X257114Y82231D03*
D17*
X267114Y82231D03*
X277114Y82231D03*
X287114Y82231D03*
X297114Y82231D03*
X307114Y82211D03*
D16*
X251091Y262841D03*
D17*
X251091Y252841D03*
X251091Y242841D03*
X251091Y232841D03*
X251091Y222841D03*
X251091Y212841D03*
X251091Y202841D03*
X251091Y192841D03*
X251091Y182841D03*
X251091Y172841D03*
D18*
X40854Y58471D03*
D19*
X40854Y72250D03*
X40854Y86030D03*
X40854Y99809D03*
D18*
X309358Y265557D03*
D19*
X309358Y251778D03*
X309358Y237998D03*
X309358Y224219D03*
D18*
X309358Y200203D03*
D19*
X309358Y186424D03*
X309358Y172644D03*
X309358Y158865D03*
D20*
X233084Y233700D03*
X269184Y269000D03*
X46184Y41400D03*
X86084Y81300D03*
X269184Y236000D03*
X44584Y138700D03*
X88784Y30800D03*
X269184Y172900D03*
X269184Y203300D03*
X79084Y105100D03*
X238984Y180300D03*
X243284Y200200D03*
X234084Y161100D03*
X234584Y201400D03*
X227784Y213400D03*
X80284Y140900D03*
X141984Y231000D03*
M02*
