<?xml version="1.0" encoding="utf-8"?>
<!DOCTYPE svg PUBLIC "-//W3C//DTD SVG 1.1//EN" "http://www.w3.org/Graphics/SVG/1.1/DTD/svg11.dtd">
<svg version="1.1" id="Layer_2" xmlns="http://www.w3.org/2000/svg" xmlns:xlink="http://www.w3.org/1999/xlink" x="0px" y="0px"
	 width="400.667px" height="400.666px" viewBox="0 0 400.667 400.666" enable-background="new 0 0 400.667 400.666"
	 xml:space="preserve">
<circle fill="#232323" cx="200.333" cy="200" r="161"/>
<line fill="none" stroke="#FFFFFF" stroke-width="4" stroke-miterlimit="10" x1="200.335" y1="49.901" x2="200.334" y2="73.332"/><!--0-->
<line fill="none" stroke="#FFFFFF" stroke-width="2" stroke-miterlimit="10" x1="213.418" y1="50.469" x2="212.027" y2="66.389"/>
<line fill="none" stroke="#FFFFFF" stroke-width="2" stroke-miterlimit="10" x1="226.4" y1="52.182" x2="222.331" y2="75.256"/><!--10-->
<line fill="none" stroke="#FFFFFF" stroke-width="2" stroke-miterlimit="10" x1="239.185" y1="55.013" x2="235.05" y2="70.449"/>
<line fill="none" stroke="#FFFFFF" stroke-width="4" stroke-miterlimit="10" x1="251.672" y1="58.954" x2="243.658" y2="80.971"/><!--20-->
<line fill="none" stroke="#FFFFFF" stroke-width="2" stroke-miterlimit="10" x1="263.771" y1="63.962" x2="257.019" y2="78.446"/>
<line fill="none" stroke="#FFFFFF" stroke-width="2" stroke-miterlimit="10" x1="275.384" y1="70.011" x2="263.668" y2="90.303"/><!--30-->
<line fill="none" stroke="#FFFFFF" stroke-width="2" stroke-miterlimit="10" x1="286.429" y1="77.045" x2="277.265" y2="90.135"/>
<line fill="none" stroke="#FFFFFF" stroke-width="4" stroke-miterlimit="10" x1="296.816" y1="85.018" x2="281.755" y2="102.967"/><!--40-->
<line fill="none" stroke="#FFFFFF" stroke-width="2" stroke-miterlimit="10" x1="306.472" y1="93.863" x2="295.174" y2="105.163"/>
<line fill="none" stroke="#FFFFFF" stroke-width="2" stroke-miterlimit="10" x1="315.317" y1="103.519" x2="297.368" y2="118.58"/><!--50-->
<line fill="none" stroke="#FFFFFF" stroke-width="2" stroke-miterlimit="10" x1="323.291" y1="113.906" x2="310.202" y2="123.073"/>
<line fill="none" stroke="#FFFFFF" stroke-width="4" stroke-miterlimit="10" x1="330.324" y1="124.951" x2="310.032" y2="136.667"/><!--60-->
<line fill="none" stroke="#FFFFFF" stroke-width="2" stroke-miterlimit="10" x1="336.373" y1="136.565" x2="321.89" y2="143.32"/>
<line fill="none" stroke="#FFFFFF" stroke-width="2" stroke-miterlimit="10" x1="341.381" y1="148.664" x2="319.363" y2="156.677"/><!--70-->
<line fill="none" stroke="#FFFFFF" stroke-width="2" stroke-miterlimit="10" x1="345.321" y1="161.151" x2="329.885" y2="165.289"/>
<line fill="none" stroke="#FFFFFF" stroke-width="4" stroke-miterlimit="10" x1="348.153" y1="173.936" x2="325.078" y2="178.004"/><!--80-->
<line fill="none" stroke="#FFFFFF" stroke-width="2" stroke-miterlimit="10" x1="349.864" y1="186.918" x2="333.944" y2="188.313"/>
<line fill="none" stroke="#FFFFFF" stroke-width="2" stroke-miterlimit="10" x1="350.433" y1="200" x2="327.001" y2="200"/><!--90-->
<line fill="none" stroke="#FFFFFF" stroke-width="2" stroke-miterlimit="10" x1="349.864" y1="213.083" x2="333.943" y2="211.691"/>
<line fill="none" stroke="#FFFFFF" stroke-width="4" stroke-miterlimit="10" x1="348.153" y1="226.065" x2="325.078" y2="221.996"/><!--100-->
<line fill="none" stroke="#FFFFFF" stroke-width="2" stroke-miterlimit="10" x1="345.32" y1="238.85" x2="329.883" y2="234.714"/>
<line fill="none" stroke="#FFFFFF" stroke-width="2" stroke-miterlimit="10" x1="341.381" y1="251.337" x2="319.363" y2="243.323"/><!--110-->
<line fill="none" stroke="#FFFFFF" stroke-width="2" stroke-miterlimit="10" x1="336.371" y1="263.436" x2="321.887" y2="256.683"/>
<line fill="none" stroke="#FFFFFF" stroke-width="4" stroke-miterlimit="10" x1="330.324" y1="275.05" x2="310.031" y2="263.333"/><!--120-->
<line fill="none" stroke="#FFFFFF" stroke-width="2" stroke-miterlimit="10" x1="323.289" y1="286.094" x2="310.198" y2="276.929"/>
<line fill="none" stroke="#FFFFFF" stroke-width="2" stroke-miterlimit="10" x1="315.317" y1="296.483" x2="297.367" y2="281.42"/><!--130-->
<line fill="none" stroke="#FFFFFF" stroke-width="2" stroke-miterlimit="10" x1="306.47" y1="306.137" x2="295.17" y2="294.837"/>
<line fill="none" stroke="#FFFFFF" stroke-width="4" stroke-miterlimit="10" x1="296.816" y1="314.983" x2="281.754" y2="297.033"/><!--140-->
<line fill="none" stroke="#FFFFFF" stroke-width="2" stroke-miterlimit="10" x1="286.427" y1="322.955" x2="277.261" y2="309.865"/>
<line fill="none" stroke="#FFFFFF" stroke-width="2" stroke-miterlimit="10" x1="275.383" y1="329.99" x2="263.667" y2="309.697"/><!--150-->
<line fill="none" stroke="#FFFFFF" stroke-width="2" stroke-miterlimit="10" x1="263.768" y1="336.036" x2="257.015" y2="321.554"/>
<line fill="none" stroke="#FFFFFF" stroke-width="4" stroke-miterlimit="10" x1="251.67" y1="341.047" x2="243.657" y2="319.028"/><!--160-->
<line fill="none" stroke="#FFFFFF" stroke-width="2" stroke-miterlimit="10" x1="239.182" y1="344.985" x2="235.046" y2="329.55"/>
<line fill="none" stroke="#FFFFFF" stroke-width="2" stroke-miterlimit="10" x1="226.398" y1="347.819" x2="222.33" y2="324.742"/><!--170-->
<line fill="none" stroke="#FFFFFF" stroke-width="2" stroke-miterlimit="10" x1="213.416" y1="349.528" x2="212.023" y2="333.609"/>
<line fill="none" stroke="#FFFFFF" stroke-width="4" stroke-miterlimit="10" x1="200.333" y1="350.099" x2="200.333" y2="326.667"/><!--180-->
<line fill="none" stroke="#FFFFFF" stroke-width="2" stroke-miterlimit="10" x1="187.248" y1="349.53" x2="188.64" y2="333.61"/>
<line fill="none" stroke="#FFFFFF" stroke-width="2" stroke-miterlimit="10" x1="174.269" y1="347.819" x2="178.337" y2="324.741"/><!--190-->
<line fill="none" stroke="#FFFFFF" stroke-width="2" stroke-miterlimit="10" x1="161.481" y1="344.986" x2="165.617" y2="329.549"/>
<line fill="none" stroke="#FFFFFF" stroke-width="4" stroke-miterlimit="10" x1="148.997" y1="341.047" x2="157.01" y2="319.026"/><!--200-->
<line fill="none" stroke="#FFFFFF" stroke-width="2" stroke-miterlimit="10" x1="136.895" y1="336.037" x2="143.648" y2="321.553"/>
<line fill="none" stroke="#FFFFFF" stroke-width="2" stroke-miterlimit="10" x1="125.284" y1="329.989" x2="137" y2="309.695"/><!--210-->
<line fill="none" stroke="#FFFFFF" stroke-width="2" stroke-miterlimit="10" x1="114.237" y1="322.954" x2="123.402" y2="309.863"/>
<line fill="none" stroke="#FFFFFF" stroke-width="4" stroke-miterlimit="10" x1="103.851" y1="314.982" x2="118.914" y2="297.03"/><!--220-->
<line fill="none" stroke="#FFFFFF" stroke-width="2" stroke-miterlimit="10" x1="94.194" y1="306.135" x2="105.494" y2="294.834"/>
<line fill="none" stroke="#FFFFFF" stroke-width="2" stroke-miterlimit="10" x1="85.35" y1="296.481" x2="103.301" y2="281.417"/><!--230-->
<line fill="none" stroke="#FFFFFF" stroke-width="2" stroke-miterlimit="10" x1="77.376" y1="286.091" x2="90.466" y2="276.925"/>
<line fill="none" stroke="#FFFFFF" stroke-width="4" stroke-miterlimit="10" x1="70.343" y1="275.048" x2="90.637" y2="263.331"/><!--240-->
<line fill="none" stroke="#FFFFFF" stroke-width="2" stroke-miterlimit="10" x1="64.295" y1="263.432" x2="78.778" y2="256.678"/>
<line fill="none" stroke="#FFFFFF" stroke-width="2" stroke-miterlimit="10" x1="59.287" y1="251.335" x2="81.306" y2="243.32"/><!--250-->
<line fill="none" stroke="#FFFFFF" stroke-width="2" stroke-miterlimit="10" x1="55.347" y1="238.845" x2="70.783" y2="234.709"/>
<line fill="none" stroke="#FFFFFF" stroke-width="4" stroke-miterlimit="10" x1="52.515" y1="226.063" x2="75.591" y2="221.993"/><!--260-->
<line fill="none" stroke="#FFFFFF" stroke-width="2" stroke-miterlimit="10" x1="50.804" y1="213.079" x2="66.723" y2="211.685"/>
<line fill="none" stroke="#FFFFFF" stroke-width="2" stroke-miterlimit="10" x1="50.235" y1="199.999" x2="73.667" y2="199.998"/><!--270-->
<line fill="none" stroke="#FFFFFF" stroke-width="2" stroke-miterlimit="10" x1="50.805" y1="186.915" x2="66.724" y2="188.306"/>
<line fill="none" stroke="#FFFFFF" stroke-width="4" stroke-miterlimit="10" x1="52.515" y1="173.934" x2="75.592" y2="178.002"/><!--280-->
<line fill="none" stroke="#FFFFFF" stroke-width="2" stroke-miterlimit="10" x1="55.349" y1="161.148" x2="70.785" y2="165.283"/>
<line fill="none" stroke="#FFFFFF" stroke-width="2" stroke-miterlimit="10" x1="59.288" y1="148.662" x2="81.307" y2="156.676"/><!--290-->
<line fill="none" stroke="#FFFFFF" stroke-width="2" stroke-miterlimit="10" x1="64.298" y1="136.562" x2="78.781" y2="143.314"/>
<line fill="none" stroke="#FFFFFF" stroke-width="4" stroke-miterlimit="10" x1="70.345" y1="124.949" x2="90.638" y2="136.665"/><!--300-->
<line fill="none" stroke="#FFFFFF" stroke-width="2" stroke-miterlimit="10" x1="77.38" y1="113.903" x2="90.47" y2="123.067"/>
<line fill="none" stroke="#FFFFFF" stroke-width="2" stroke-miterlimit="10" x1="85.352" y1="103.517" x2="103.302" y2="118.579"/><!--310-->
<line fill="none" stroke="#FFFFFF" stroke-width="2" stroke-miterlimit="10" x1="94.199" y1="93.86" x2="105.499" y2="105.159"/>
<line fill="none" stroke="#FFFFFF" stroke-width="4" stroke-miterlimit="10" x1="103.853" y1="85.017" x2="118.915" y2="102.966"/><!--320-->
<line fill="none" stroke="#FFFFFF" stroke-width="2" stroke-miterlimit="10" x1="114.242" y1="77.042" x2="123.409" y2="90.131"/>
<line fill="none" stroke="#FFFFFF" stroke-width="2" stroke-miterlimit="10" x1="125.286" y1="70.01" x2="137.001" y2="90.302"/><!--330-->
<line fill="none" stroke="#FFFFFF" stroke-width="2" stroke-miterlimit="10" x1="136.901" y1="63.96" x2="143.656" y2="78.443"/>
<line fill="none" stroke="#FFFFFF" stroke-width="4" stroke-miterlimit="10" x1="148.999" y1="58.953" x2="157.012" y2="80.971"/><!--340-->
<line fill="none" stroke="#FFFFFF" stroke-width="2" stroke-miterlimit="10" x1="161.488" y1="55.012" x2="165.625" y2="70.447"/>
<line fill="none" stroke="#FFFFFF" stroke-width="2" stroke-miterlimit="10" x1="174.271" y1="52.181" x2="178.339" y2="75.256"/><!--350-->
<line fill="none" stroke="#FFFFFF" stroke-width="2" stroke-miterlimit="10" x1="187.254" y1="50.469" x2="188.648" y2="66.388"/>
</svg>
