<?xml version="1.0" encoding="UTF-8" standalone="no"?>
<svg
   xmlns:dc="http://purl.org/dc/elements/1.1/"
   xmlns:cc="http://creativecommons.org/ns#"
   xmlns:rdf="http://www.w3.org/1999/02/22-rdf-syntax-ns#"
   xmlns:svg="http://www.w3.org/2000/svg"
   xmlns="http://www.w3.org/2000/svg"
   xmlns:sodipodi="http://sodipodi.sourceforge.net/DTD/sodipodi-0.dtd"
   xmlns:inkscape="http://www.inkscape.org/namespaces/inkscape"
   version="1.1"
   id="Layer_2"
   x="0px"
   y="0px"
   width="400.667px"
   height="400.666px"
   viewBox="0 0 400.667 400.666"
   enable-background="new 0 0 400.667 400.666"
   xml:space="preserve"
   sodipodi:docname="heading_mechanics.svg"
   inkscape:version="1.0.1 (3bc2e813f5, 2020-09-07)"><metadata
   id="metadata116"><rdf:RDF><cc:Work
       rdf:about=""><dc:format>image/svg+xml</dc:format><dc:type
         rdf:resource="http://purl.org/dc/dcmitype/StillImage" /></cc:Work></rdf:RDF></metadata><defs
   id="defs114" /><sodipodi:namedview
   pagecolor="#ffffff"
   bordercolor="#666666"
   borderopacity="1"
   objecttolerance="10"
   gridtolerance="10"
   guidetolerance="10"
   inkscape:pageopacity="0"
   inkscape:pageshadow="2"
   inkscape:window-width="1600"
   inkscape:window-height="838"
   id="namedview112"
   showgrid="false"
   inkscape:zoom="1.6173072"
   inkscape:cx="200.3335"
   inkscape:cy="200.33299"
   inkscape:window-x="-8"
   inkscape:window-y="-8"
   inkscape:window-maximized="1"
   inkscape:current-layer="g77" />
<filter
   filterUnits="objectBoundingBox"
   id="AI_Shadow_1">
	<feGaussianBlur
   stdDeviation="5"
   result="blur"
   in="SourceAlpha"
   id="feGaussianBlur64" />
	<feOffset
   dy="0"
   dx="0"
   result="offsetBlurredAlpha"
   in="blur"
   id="feOffset66" />
	<feMerge
   id="feMerge72">
		<feMergeNode
   in="offsetBlurredAlpha"
   id="feMergeNode68" />
		<feMergeNode
   in="SourceGraphic"
   id="feMergeNode70" />
	</feMerge>
</filter>
<g
   filter="url(#AI_Shadow_1)"
   id="g77">
	<path
   fill="none"
   stroke="#ff2a00"
   stroke-width="3"
   stroke-miterlimit="10"
   d="M 201.13066,144.55745 127.75,196.842 c 0,0 -13.543,8.502 -16.3,15.598 -0.958,2.468 -1.491,5.852 -1.612,7.852 -0.222,3.681 0,13.749 0,13.75 0.125,2.125 1.5,3.875 6,2.375 96.70609,-34.74114 91.93312,-20.08642 169.084,0 4.5,1.5 5.875,-0.25 6,-2.375 0,-0.001 0.222,-10.069 0,-13.75 -0.121,-2 -0.653,-5.384 -1.612,-7.852 -2.756,-7.096 -16.3,-15.598 -16.3,-15.598 l -71.87934,-52.28455"
   id="path75"
   sodipodi:nodetypes="cccccccscccc" />
</g>
<g
   filter="url(#AI_Shadow_1)"
   id="g81">
	<polygon
   fill="#FF2A00"
   points="200.381,332.311 194.542,344.439 206.542,344.439  "
   id="polygon79" />
</g>
<g
   filter="url(#AI_Shadow_1)"
   id="g85">
	<polygon
   fill="#FFFFFF"
   points="294.272,294.239 298.743,307.01 307.272,298.481  "
   id="polygon83" />
</g>
<g
   filter="url(#AI_Shadow_1)"
   id="g89">
	<polygon
   fill="#FFFFFF"
   points="105.938,294.771 94.146,298.898 102.02,306.771  "
   id="polygon87" />
</g>
<g
   filter="url(#AI_Shadow_1)"
   id="g93">
	<polygon
   fill="#FF2A00"
   points="68.291,200.382 56.291,194.604 56.291,206.477  "
   id="polygon91" />
</g>
<g
   filter="url(#AI_Shadow_1)"
   id="g97">
	<polygon
   fill="#FFFFFF"
   points="106.001,106.041 101.801,94.041 93.787,102.055  "
   id="polygon95" />
</g>
<g
   filter="url(#AI_Shadow_1)"
   id="g101">
	<polygon
   fill="#FFFFFF"
   points="294.731,105.894 306.519,101.767 298.646,93.894  "
   id="polygon99" />
</g>
<g
   filter="url(#AI_Shadow_1)"
   id="g105">
	<polygon
   fill="#FF2A00"
   points="332.311,200.285 344.44,206.125 344.441,194.125  "
   id="polygon103" />
</g>
<g
   filter="url(#AI_Shadow_1)"
   id="g109">
	<polygon
   fill="#FF2A00"
   points="200.619,68.022 206.458,55.893 194.458,55.892  "
   id="polygon107" />
</g>
</svg>
